<?xml version="1.0" encoding="utf-8"?>
<!-- Generator: Adobe Illustrator 16.0.0, SVG Export Plug-In . SVG Version: 6.00 Build 0)  -->
<!DOCTYPE svg PUBLIC "-//W3C//DTD SVG 1.1//EN" "http://www.w3.org/Graphics/SVG/1.1/DTD/svg11.dtd">
<svg version="1.1" id="Layer_1" xmlns="http://www.w3.org/2000/svg" xmlns:xlink="http://www.w3.org/1999/xlink" x="0px" y="0px"
	 width="1400px" height="980px" viewBox="0 0 1400 980" enable-background="new 0 0 1400 980" xml:space="preserve">
<pattern  width="786" height="690" patternUnits="userSpaceOnUse" id="New_Pattern_Swatch_1" viewBox="0 -690 786 690" overflow="visible">
	<g>
		<polygon fill="none" points="0,0 786,0 786,-690 0,-690 		"/>
		<path fill="none" d="M786-690V0H0v-690H786z M641.773-593.873c-7.084,12.649-9.476,28.678-13.281,42.471
			c-3.795,13.757-6.524,38.568,3.369,50.287c9.686,11.475,15.262,14.326,32.192,14.299c7.08-0.012,48.947,5.316,58.574-16.15
			c4.896-10.92,6.674-21.082,5.238-31.794c3.239-1.192,6.297-2.892,9.069-5.212c5.802-4.857,9.29-11.596,12.11-18.479
			c2.678-6.533,4.895-13.246,7.434-19.834c0.432,0.194,0.891,0.367,1.395,0.5c5.477,1.438,10.16,0.646,14.58-2.891
			c4.197-3.36,4.215-9.898,1.825-14.195c-2.866-5.153-9.599-6.668-14.987-5.973c-6.647,0.855-11.288,4.831-14.718,10.418
			c-5.378,8.758-7.224,19.592-11.513,28.891c-2.312,5.01-5.143,8.547-8.932,10.664c-0.216-0.789-0.434-1.578-0.646-2.358
			c-4.07-14.883-5.138-29.947-12.517-42.471c2.477-1.883,4.729-3.965,6.665-6.26c4.645-5.507,9.109-14.155,10.043-21.39
			c0.419-3.251,0.278-6.477-0.32-9.6c-0.001-0.021-1.797-33.208-11.325-46.05c0,0-5.489,8.075-10.768,19.375
			c-11.552-4.89-25.146-4.232-37.466-3.423c-5.803,0.381-12.186,1.101-18.111,2.896C644.81-671.175,640.742-679,640.742-679
			c-6.769,9.123-10.469,28.501-12.047,38.976c-4.479,14.665-0.067,33.442,10.197,43.617
			C639.802-595.506,640.773-594.673,641.773-593.873z M664.656-437.755l-4.989-1.657c-1.27,0.642-2.544,1.311-3.825,2.021
			c0,0,5.959,4.401,16.193,8.58c17.073,6.971,32.434,11.091,64.458-4.813c9.995,6.922,15.672,13.106,15.672,13.106l5.132-31.538
			c-6.921,5.702-13.5,10.378-20.012,14.16c-16.444-10.534-31.233-18.316-63.861-7.304c-3.304,1.114-6.658,2.444-10.055,4.003
			L664.656-437.755z M736.653-392.763c-4.777-1.245-10.074,3.208-11.829,9.944c-2.476,9.506,0.695,13.208,5.475,14.453
			c4.777,1.244,9.354-0.44,11.828-9.944C743.881-385.049,738.663-392.24,736.653-392.763z M716.619-382.819
			c-1.755-6.737-7.052-11.189-11.829-9.944c-2.01,0.523-7.228,7.714-5.474,14.453c2.475,9.504,7.051,11.188,11.828,9.944
			C715.924-369.611,719.095-373.313,716.619-382.819z M683.283-359.228c3.688,7.671,7.859,8.342,11.717,6.489
			c3.855-1.854,5.937-5.531,2.249-13.203c-2.614-5.438-7.86-8.342-11.716-6.488C681.746-370.61,680.17-365.707,683.283-359.228z
			 M699.982-325.174c9.156-1.698,17.832-3.605,19.619-3.791c0,0,7.324-1.308,13.342,2.354c6.016,3.662,15.91,0.001,14.078-7.324
			c-1.83-7.325-7.717-29.908-27.42-30.083c-14.648-0.13-22.496,16.218-23.02,21.188S690.826-323.476,699.982-325.174z
			 M757.52-359.228c3.113-6.479,1.537-11.383-2.25-13.202c-3.855-1.854-9.102,1.051-11.716,6.488
			c-3.688,7.672-1.606,11.349,2.249,13.203C749.66-350.886,753.832-351.557,757.52-359.228z M580.813-379.795
			c-5.405,10.945,10.981,20.576,16.406,9.59c1.702-3.446,4.17-5.597,7.993-6.328c0.916-0.174,2.135-0.254,3.266,0.516
			c0.771,0.525,1.689,2.02,2.004,3.348c2.429,10.266-4.128,18.997-11.627,25.166c-9.153,7.529-20.514,12.174-32.348,14.95
			c-0.337-19.222-1.983-42.437-7.137-59.246c4.847-2.232,8.354-5.123,9.754-8.607c4.679-11.641,9.147-28.415,5.252-42.254
			c-1.547-10.385-5.256-30.112-12.102-39.339c0,0-4.068,7.825-8.941,18.848c-5.925-1.795-12.309-2.515-18.111-2.896
			c-12.321-0.81-25.914-1.467-37.466,3.423c-5.278-11.3-10.768-19.375-10.768-19.375c-9.531,12.847-11.325,46.051-11.325,46.051l0,0
			c-0.599,3.123-0.739,6.349-0.32,9.6c0.934,7.234,5.398,19.883,10.042,25.39c1.902,2.255,4.309,4.232,7.096,5.941
			c-3.178,10.84-4.381,25.92-4.778,40.784c-2.237-2.022-5.173-3.265-8.687-3.265c-6.866,0-11.464,6.129-11.5,13.5
			c-0.046,9.5-1.28,16.225,0.428,24.18c3.572,16.629,10.734,14.986,22.027,16.195c8.474,0.906,51.161,0.107,64.044,0.125
			c6.243,0.009,10.235-3.463,12.001-7.913l0.393,0.011c0.011-0.405,0.021-0.818,0.031-1.237c0.062-0.208,0.11-0.42,0.163-0.631
			c21.942-4.476,43.231-13.974,56.129-32.264c9.335-13.238,11.181-36.103-3.729-46.252
			C606.105-400.566,587.363-393.059,580.813-379.795z M525.803-251.857c-2.042-4.248-6.14-6.516-9.152-5.068
			c-2.958,1.421-4.19,5.251-1.757,10.313c2.88,5.992,6.139,6.516,9.151,5.069C527.058-242.992,528.683-245.865,525.803-251.857z
			 M527.417-261.52c1.934,7.424,5.508,8.74,9.24,7.768c3.732-0.973,6.21-3.864,4.276-11.29c-1.371-5.262-5.508-8.74-9.24-7.768
			C530.123-272.4,526.047-266.783,527.417-261.52z M527.938-220.013c7.152-1.327,13.929-2.816,15.325-2.961
			c0,0,5.722-1.021,10.421,1.839c4.7,2.861,12.428,0.001,10.998-5.721c-1.431-5.723-6.028-23.363-21.419-23.499
			c-11.442-0.102-17.572,12.668-17.981,16.551C524.873-229.921,520.786-218.686,527.938-220.013z M560.858-261.52
			c1.37-5.264-2.706-10.881-4.276-11.29c-3.731-0.972-7.869,2.506-9.24,7.768c-1.934,7.426,0.543,10.317,4.276,11.29
			C555.351-252.78,558.925-254.096,560.858-261.52z M569.973-655.857c-2.88,5.993-1.255,8.865,1.757,10.313
			c3.012,1.447,6.271,0.923,9.151-5.069c2.433-5.061,1.202-8.891-1.757-10.313C576.113-662.374,572.015-660.105,569.973-655.857z
			 M559.619-657.751c3.732,0.972,7.306-0.344,9.24-7.768c1.37-5.264-2.706-10.881-4.276-11.29c-3.731-0.972-7.869,2.506-9.24,7.768
			C553.409-661.615,555.886-658.724,559.619-657.751z M551.263-654.354c-11.442-0.102-17.572,12.668-17.981,16.551
			c-0.409,3.883-4.496,15.118,2.656,13.791s13.929-2.816,15.325-2.961c0,0,5.722-1.021,10.421,1.839
			c4.7,2.861,12.428,0.001,10.998-5.721C571.251-636.578,566.654-654.218,551.263-654.354z M535.417-665.52
			c1.934,7.424,5.508,8.74,9.24,7.768c3.732-0.973,6.21-3.864,4.276-11.29c-1.371-5.262-5.508-8.74-9.24-7.768
			C538.123-676.4,534.047-670.783,535.417-665.52z M522.894-650.613c2.88,5.992,6.139,6.516,9.151,5.069
			c3.012-1.449,4.638-4.321,1.757-10.313c-2.042-4.248-6.14-6.516-9.152-5.068C521.692-659.504,520.461-655.674,522.894-650.613z
			 M366.931-613.513l-12.849,15.378l17.331,2.074c0.083,0.211,0.165,0.423,0.25,0.632L363-576l14.472-1.412
			c-1.959,2.595-3.6,5.423-5.005,8.429c-1.378,2.947-2.547,6.054-3.616,9.244l-0.856,3.486l-2.74,11.151l-3.194,13l-1.75,7.122
			c-0.185,1.525-0.323,3.055-0.433,4.587c-0.345,4.813-0.293,9.652,0.29,14.518c0.154,1.283,0.332,2.567,0.563,3.854
			c2.938,16.357,13.811,17.953,30.746,21.02c6.886,1.246,36.105,0.465,47.605-0.5c15.005-1.259,29.568-3.135,34.383-16.091
			c1.082-2.911,1.676-6.375,1.668-10.523c-0.004-2.051-0.082-4.123-0.189-6.203c-0.033-0.632-0.091-1.269-0.131-1.902
			c8.498-2.197,16.758-5.222,24.675-9.108c9.001-4.419,31.089-19.004,33.822-21.444c4.214-3.763,7.615-8.309,10.943-12.852
			c0.991-1.353,5.909-7.499,6.557-8.148c6.817-7.048,7.021-18.434,0-25.455c-6.848-6.849-18.636-7.052-25.456,0
			c-3.926,4.059-7.257,8.662-10.572,13.223c-0.574,0.789-1.153,1.575-1.734,2.359c-0.118,0.146-0.256,0.315-0.421,0.52
			c-1.498,1.741-8.045,21.063-28.602,32.265c-4.469,2.435-8.083,3.877-11.75,4.916c-0.133-1.055-0.266-2.109-0.392-3.154
			c-0.359-2.969-0.778-6.023-1.31-9.085c-0.828-4.768-1.958-9.549-3.641-14.068c-1.548-4.157-3.579-8.08-6.278-11.56L474.559-576
			l-7.926-18.664c0.275-0.801,0.531-1.616,0.764-2.448l16.08-1.023l-12.849-16.378l9.849-5.437l-14.352-8.758
			c-1.706-10.755-5.362-28.636-11.785-37.292c0,0-4.068,7.825-8.941,18.848c-2.056-0.623-4.164-1.123-6.288-1.517
			c-3.245-0.601-6.516-0.971-9.66-1.222c-0.729-0.058-1.451-0.11-2.164-0.157c-2.389-0.157-4.825-0.308-7.285-0.414
			c-2.364-0.103-4.75-0.164-7.136-0.148c-4.27,0.028-8.54,0.304-12.689,1.021c-2.675,0.463-5.299,1.112-7.841,1.997
			c-0.848,0.295-1.686,0.618-2.515,0.968c-5.278-11.3-10.768-19.375-10.768-19.375c-6.979,9.407-9.807,29.715-10.823,39.923
			l-11.149,6.127L366.931-613.513z M364.582-388.829c-0.523,4.971-5.755,19.354,3.4,17.655s17.832-3.605,19.619-3.791
			c0,0,7.325-1.308,13.341,2.354s15.91,0.001,14.079-7.324s-7.717-29.908-27.42-30.083
			C372.953-410.147,365.105-393.8,364.582-388.829z M379.145-414.366c4.778-1.245,7.95-4.946,5.474-14.453
			c-1.755-6.737-7.052-11.189-11.829-9.944c-2.01,0.523-7.228,7.714-5.474,14.453C369.792-414.807,374.367-413.122,379.145-414.366z
			 M404.653-438.763c-4.777-1.245-10.074,3.208-11.829,9.944c-2.476,9.506,0.696,13.208,5.474,14.453
			c4.778,1.244,9.354-0.44,11.829-9.944C411.881-431.049,406.663-438.24,404.653-438.763z M413.803-398.738
			c3.856,1.853,8.028,1.182,11.716-6.489c3.114-6.479,1.538-11.383-2.25-13.202c-3.855-1.854-9.102,1.051-11.716,6.488
			C407.866-404.27,409.947-400.593,413.803-398.738z M381.163-301.099c7.781,0.58,14.726,1.599,21.094,3.14
			c3.997,16.511,8.609,30.297,35.735,43.003c2.747,1.288,5.654,2.469,8.726,3.532l1.262-2.937l2.138,4.043
			c1.185,0.36,2.387,0.708,3.621,1.031c0,0-1.099-6.35-5.015-15.133c-6.536-14.649-13.708-26.478-43.4-35.748
			c-2.117-10.362-1.965-17.662-1.965-17.662L381.163-301.099z M351.284-405.228c3.688,7.671,7.859,8.342,11.716,6.489
			c3.856-1.854,5.937-5.531,2.25-13.203c-2.614-5.438-7.86-8.342-11.716-6.488C349.746-416.61,348.169-411.707,351.284-405.228z
			 M305.973-604.857c-2.88,5.993-1.255,8.865,1.757,10.313c3.012,1.447,6.271,0.923,9.151-5.069
			c2.433-5.061,1.202-8.891-1.757-10.313C312.113-611.374,308.015-609.105,305.973-604.857z M287.044-334.625
			c11.293-1.209,18.456,0.434,22.027-16.195c1.708-7.955,0.475-14.68,0.428-24.18c-0.036-7.371-4.634-13.5-11.5-13.5
			c-3.514,0-6.45,1.242-8.687,3.265c-0.397-14.863-1.6-29.943-4.778-40.784c2.787-1.709,5.193-3.686,7.096-5.941
			c4.644-5.507,9.109-18.155,10.042-25.39c0.419-3.251,0.279-6.477-0.32-9.6l0,0c0,0-1.794-33.204-11.325-46.051
			c0,0-5.489,8.075-10.768,19.375c-11.552-4.89-25.145-4.232-37.466-3.423c-5.803,0.381-12.186,1.101-18.111,2.896
			c-4.873-11.023-8.941-18.848-8.941-18.848c-6.846,9.227-10.555,28.954-12.102,39.339c-3.895,13.839,0.573,30.613,5.252,42.254
			c1.4,3.484,4.907,6.375,9.754,8.607c-5.154,16.809-6.799,40.024-7.137,59.246c-11.834-2.776-23.195-7.421-32.348-14.95
			c-7.5-6.169-14.057-14.9-11.627-25.166c0.314-1.328,1.232-2.822,2.004-3.348c1.131-0.77,2.351-0.689,3.266-0.516
			c3.822,0.731,6.291,2.882,7.993,6.328c5.425,10.986,21.811,1.355,16.406-9.59c-6.549-13.264-25.292-20.771-38.19-11.992
			c-14.91,10.149-13.064,33.014-3.729,46.252c12.898,18.291,34.187,27.789,56.129,32.264c0.052,0.211,0.101,0.423,0.163,0.631
			c0.01,0.419,0.02,0.832,0.031,1.237l0.393-0.011c1.766,4.45,5.758,7.922,12.001,7.913
			C235.883-334.518,278.57-333.719,287.044-334.625z M228.583-68.809c-3.731-0.973-7.869,2.506-9.24,7.768
			c-1.934,7.426,0.543,10.316,4.276,11.289s7.306-0.344,9.24-7.768C234.229-62.783,230.152-68.4,228.583-68.809z M258.894-599.613
			c2.88,5.992,6.139,6.516,9.151,5.069c3.012-1.449,4.638-4.321,1.757-10.313c-2.042-4.248-6.14-6.516-9.152-5.068
			C257.692-608.504,256.461-604.674,258.894-599.613z M295.619-606.751c3.732,0.972,7.306-0.344,9.24-7.768
			c1.37-5.264-2.706-10.881-4.276-11.29c-3.731-0.972-7.869,2.506-9.24,7.768C289.409-610.615,291.886-607.724,295.619-606.751z
			 M287.263-603.354c-11.442-0.102-17.572,12.668-17.981,16.551c-0.409,3.883-4.496,15.118,2.656,13.791s13.929-2.816,15.325-2.961
			c0,0,5.722-1.021,10.421,1.839c4.7,2.861,12.428,0.001,10.998-5.721C307.251-585.578,302.654-603.218,287.263-603.354z
			 M271.417-614.52c1.934,7.424,5.508,8.74,9.24,7.768c3.732-0.973,6.21-3.864,4.276-11.29c-1.371-5.262-5.508-8.74-9.24-7.768
			C274.123-625.4,270.047-619.783,271.417-614.52z M175-632.962c5.916-6.741,11.657-12.412,17.479-17.19
			c17.922,7.756,33.77,13.063,64.205-3.047c3.083-1.631,6.179-3.482,9.281-5.566l-1.823-3.19l5.19,0.835
			c1.15-0.837,2.301-1.702,3.452-2.61c0,0-6.589-3.387-17.362-5.868c-17.97-4.138-33.792-5.738-62.848,15.104
			C181.597-659.722,175-664.915,175-664.915V-632.962z M25.454-621.513l-12.849,16.378l16.06,1.022
			c0.236,0.84,0.496,1.663,0.774,2.471L21.523-583l11.685-1.523c-7.353,9.661-9.589,22.699-11.009,34.423
			c-1.384,11.429-3.228,23.49-3.25,34.986C18.904-492.5,36.624-490.041,55-488.5c11.5,0.964,40.72,1.747,47.605,0.5
			c16.936-3.066,27.809-4.663,30.746-21.019c1.386-7.717,1.338-15.375,0.42-22.959c12.934-3.662,24.298-11.099,34.357-20.358
			c0.437,1.352,0.999,2.674,1.738,3.936c5.818,9.933,18.795,13.225,28.732,7.534c8.751-5.012,13.541-14.01,13.817-23.935
			c0.251-9.011-4.284-16.541-9.617-23.306c-4.046-5.133-11.091-9.199-17.378-10.721c-9.85-2.383-18.921,0.177-26.717,5.949
			c-1.84,0.856-3.53,2.051-4.933,3.651c-2.97,3.388-6.019,6.69-9.228,9.853c-1.759,1.734-3.604,3.377-5.48,4.983
			c-0.444,0.359-0.743,0.604-0.927,0.757c-0.801,0.577-1.611,1.141-2.429,1.695c-1.597,1.082-3.271,2.038-4.96,2.967
			c-0.321,0.172-0.652,0.325-0.978,0.49c-0.273,0.103-2.187,0.979-2.666,1.148c-0.619,0.218-1.244,0.414-1.874,0.596
			c-2.187-6.526-4.79-12.7-8.756-17.881l16.606,1.62l-8.663-19.429c0.085-0.209,0.167-0.421,0.25-0.632L142-605.135l-12.849-15.378
			l9.849-6.436l-11.149-6.128c-1.016-10.208-3.844-30.517-10.823-39.923c0,0-5.489,8.075-10.768,19.375
			c-11.552-4.89-25.146-4.232-37.466-3.423c-5.803,0.381-12.186,1.101-18.111,2.896C45.81-665.175,41.742-673,41.742-673
			c-6.421,8.654-10.08,26.537-11.786,37.293l-14.351,8.758L25.454-621.513z M43.249-425.941c-2.614-5.438-7.86-8.342-11.716-6.488
			c-3.788,1.819-5.364,6.723-2.25,13.202c3.688,7.671,7.859,8.342,11.716,6.489C44.856-414.593,46.937-418.27,43.249-425.941z
			 M45.316-438.311c2.476,9.504,7.051,11.188,11.829,9.944c4.778-1.245,7.95-4.946,5.474-14.453
			c-1.755-6.737-7.052-11.189-11.829-9.944C48.78-452.24,43.562-445.049,45.316-438.311z M45.982-385.174
			c9.156-1.698,17.832-3.605,19.619-3.791c0,0,7.325-1.308,13.341,2.354s15.91,0.001,14.079-7.324s-7.717-29.908-27.42-30.083
			c-14.649-0.13-22.496,16.218-23.02,21.188S36.827-383.476,45.982-385.174z M76.298-428.366c4.778,1.244,9.354-0.44,11.829-9.944
			c1.754-6.739-3.464-13.93-5.474-14.453c-4.777-1.245-10.074,3.208-11.829,9.944C68.349-433.313,71.52-429.611,76.298-428.366z
			 M103.519-419.228c3.114-6.479,1.538-11.383-2.25-13.202c-3.855-1.854-9.102,1.051-11.716,6.488
			c-3.688,7.672-1.607,11.349,2.25,13.203C95.66-410.886,99.832-411.557,103.519-419.228z M35.366-46.629
			c4.538-2.184,6.987-6.512,2.647-15.54c-3.077-6.4-9.25-9.818-13.789-7.637c-4.458,2.142-6.313,7.912-2.648,15.539
			C25.917-45.238,30.827-44.45,35.366-46.629z M40.447-76.728c2.912,11.186,8.298,13.169,13.921,11.704
			c5.625-1.466,9.357-5.82,6.444-17.009c-2.066-7.93-8.3-13.17-13.922-11.705C44.524-93.122,38.383-84.658,40.447-76.728z
			 M96.594-24.498c-2.154-8.621-9.083-35.201-32.272-35.407c-17.24-0.152-26.477,19.088-27.092,24.938
			c-0.617,5.85-6.775,22.777,4.001,20.779c10.776-1.999,20.987-4.243,23.091-4.462c0,0,8.621-1.54,15.703,2.771
			C87.104-11.568,98.75-15.877,96.594-24.498z M76.912-65.023c5.623,1.465,11.009-0.519,13.921-11.704
			c2.065-7.931-4.076-16.395-6.441-17.01c-5.623-1.465-11.857,3.775-13.923,11.705C67.554-70.844,71.287-66.489,76.912-65.023z
			 M106.301-69.806c-4.538-2.182-10.712,1.236-13.79,7.637c-4.339,9.028-1.89,13.356,2.647,15.54
			c4.541,2.179,9.451,1.391,13.791-7.638C112.614-61.894,110.758-67.664,106.301-69.806z M135.133-195.114
			c-0.004-2.051-0.082-4.123-0.189-6.203c-0.033-0.632-0.091-1.269-0.131-1.902c8.498-2.197,16.758-5.222,24.675-9.108
			c9.001-4.419,31.089-19.004,33.822-21.444c4.214-3.763,7.615-8.309,10.943-12.852c0.991-1.353,5.909-7.499,6.557-8.148
			c6.817-7.048,7.021-18.434,0-25.455c-6.848-6.849-18.636-7.052-25.456,0c-3.926,4.059-7.257,8.662-10.572,13.223
			c-0.574,0.789-1.153,1.575-1.734,2.359c-0.118,0.146-0.256,0.315-0.421,0.52c-1.498,1.741-8.045,21.063-28.602,32.265
			c-4.469,2.435-8.083,3.877-11.75,4.916c-0.133-1.055-0.266-2.109-0.392-3.154c-0.359-2.969-0.778-6.023-1.31-9.085
			c-0.828-4.768-1.958-9.549-3.641-14.068c-1.548-4.157-3.579-8.08-6.278-11.56L134.559-263l-7.926-18.664
			c0.275-0.801,0.531-1.616,0.764-2.448l16.08-1.023l-12.849-16.378l9.849-5.437l-14.352-8.758
			c-1.706-10.755-5.362-28.636-11.785-37.292c0,0-4.068,7.825-8.941,18.848c-2.056-0.623-4.164-1.123-6.288-1.517
			c-3.245-0.601-6.516-0.971-9.66-1.222c-0.729-0.058-1.451-0.11-2.164-0.157c-2.389-0.157-4.825-0.308-7.285-0.414
			c-2.364-0.103-4.75-0.164-7.136-0.148c-4.27,0.028-8.54,0.304-12.689,1.021c-2.675,0.463-5.299,1.112-7.841,1.997
			c-0.848,0.295-1.686,0.618-2.515,0.968C44.543-344.924,39.054-353,39.054-353c-6.979,9.407-9.807,29.715-10.823,39.923
			l-11.149,6.127l9.849,6.437l-12.849,15.378l17.331,2.074c0.083,0.211,0.165,0.423,0.25,0.632L23-263l14.472-1.412
			c-1.959,2.595-3.6,5.423-5.005,8.429c-1.378,2.947-2.547,6.054-3.616,9.244l-0.856,3.486l-2.74,11.151l-3.194,13l-1.75,7.122
			c-0.185,1.525-0.323,3.055-0.433,4.587c-0.345,4.813-0.293,9.652,0.29,14.518c0.154,1.283,0.332,2.567,0.563,3.854
			c2.938,16.357,13.811,17.953,30.746,21.02c6.886,1.246,36.105,0.465,47.605-0.5c15.005-1.259,29.568-3.135,34.383-16.091
			C134.547-187.502,135.141-190.966,135.133-195.114z M165.975-94.221c-0.723-11.349-0.646-21.581,0.302-31.084
			c23.036-9.082,42.015-18.507,54.918-60.219c1.308-4.224,2.431-8.659,3.35-13.307l-4.494-1.232l5.409-3.898
			c0.282-1.782,0.542-3.588,0.763-5.434c0,0-8.948,2.859-20.843,10.275c-19.84,12.375-35.479,25.104-42.906,69.838
			c-14.541,5.139-25.104,6.372-25.104,6.372L165.975-94.221z M212.933-61.041c-1.371-5.262-5.508-8.74-9.24-7.768
			c-1.57,0.408-5.646,6.025-4.276,11.289c1.934,7.424,5.508,8.74,9.24,7.768S214.867-53.615,212.933-61.041z M196.045-37.544
			c3.012-1.448,4.638-4.321,1.757-10.313c-2.042-4.248-6.14-6.516-9.152-5.068c-2.958,1.422-4.19,5.252-1.757,10.313
			C189.774-36.621,193.033-36.098,196.045-37.544z M236.682-22.855c-1.431-5.723-6.028-23.363-21.419-23.499
			c-11.442-0.102-17.572,12.668-17.981,16.551c-0.409,3.883-4.496,15.118,2.656,13.791s13.929-2.816,15.325-2.961
			c0,0,5.722-1.021,10.421,1.839C230.384-14.273,238.112-17.134,236.682-22.855z M243.125-52.926
			c-3.012-1.447-7.11,0.82-9.152,5.068c-2.88,5.992-1.255,8.865,1.757,10.313c3.012,1.446,6.271,0.923,9.151-5.069
			C247.314-47.674,246.083-51.504,243.125-52.926z M296.053-111.816c7.08-0.012,48.947,5.316,58.574-16.15
			c4.896-10.92,6.674-21.082,5.239-31.794c3.239-1.192,6.297-2.892,9.069-5.212c5.802-4.857,9.29-11.596,12.111-18.479
			c2.677-6.533,4.894-13.246,7.433-19.834c0.433,0.194,0.891,0.367,1.395,0.5c5.477,1.438,10.16,0.646,14.58-2.891
			c4.197-3.36,4.215-9.898,1.825-14.195c-2.866-5.153-9.599-6.668-14.987-5.973c-6.647,0.855-11.288,4.831-14.718,10.418
			c-5.377,8.758-7.223,19.592-11.513,28.891c-2.311,5.01-5.142,8.547-8.931,10.664c-0.216-0.789-0.434-1.578-0.647-2.358
			c-4.071-14.884-5.137-29.947-12.517-42.471c2.477-1.883,4.729-3.965,6.665-6.26c4.644-5.507,9.109-14.155,10.042-21.39
			c0.419-3.251,0.279-6.476-0.32-9.599l0,0c0,0-1.794-33.205-11.325-46.051c0,0-5.489,8.075-10.768,19.375
			c-11.552-4.89-25.145-4.232-37.466-3.423c-5.803,0.381-12.186,1.101-18.112,2.896c-4.873-11.023-8.941-18.848-8.941-18.848
			c-6.769,9.123-10.469,28.501-12.047,38.976c-4.479,14.665-0.067,33.441,10.197,43.617c0.909,0.901,1.881,1.734,2.88,2.534
			c-7.084,12.649-9.476,28.679-13.281,42.471c-3.795,13.757-6.524,38.568,3.369,50.287
			C273.547-114.641,279.123-111.789,296.053-111.816z M378.957-25.555c0,0-3.002-6.774-9.829-15.47
			c-11.389-14.505-22.699-25.686-58.404-27.708c-5.265-10.964-7.128-19.143-7.128-19.143l-20.063,24.868
			c8.836-1.532,16.867-2.34,24.397-2.404c9.079,17.291,18.081,31.37,51.883,37.942c3.423,0.666,6.996,1.17,10.719,1.496l0.585-3.628
			l3.515,3.909C376.053-25.621,377.491-25.571,378.957-25.555z M555.592-125.642c0.278-0.809,0.539-1.631,0.774-2.472l16.06-1.021
			l-12.849-16.378l9.849-5.437l-14.351-8.758c-1.706-10.756-5.365-28.639-11.786-37.293c0,0-4.068,7.825-8.941,18.848
			c-5.925-1.795-12.308-2.514-18.111-2.896c-12.32-0.81-25.914-1.467-37.466,3.423c-5.278-11.3-10.768-19.375-10.768-19.375
			c-6.979,9.407-9.807,29.715-10.823,39.924l-11.149,6.127l9.849,6.437l-12.849,15.378l17.331,2.074
			c0.083,0.211,0.165,0.423,0.25,0.632L451.95-107l16.606-1.62c-3.966,5.182-6.569,11.355-8.756,17.882
			c-0.63-0.182-1.255-0.378-1.874-0.596c-0.479-0.17-2.393-1.045-2.666-1.148c-0.325-0.166-0.656-0.318-0.978-0.49
			c-1.688-0.93-3.363-1.885-4.96-2.967c-0.817-0.555-1.628-1.118-2.429-1.695c-0.184-0.153-0.482-0.398-0.927-0.758
			c-1.876-1.605-3.722-3.248-5.48-4.982c-3.209-3.163-6.258-6.465-9.228-9.854c-1.402-1.6-3.093-2.795-4.933-3.65
			c-7.796-5.772-16.867-8.333-26.717-5.949c-6.287,1.521-13.332,5.587-17.378,10.721c-5.333,6.766-9.868,14.295-9.617,23.306
			c0.276,9.925,5.066,18.923,13.817,23.935c9.938,5.691,22.914,2.398,28.732-7.533c0.739-1.262,1.302-2.584,1.738-3.936
			c10.06,9.259,21.424,16.695,34.357,20.357c-0.918,7.585-0.966,15.242,0.42,22.959c2.938,16.357,13.811,17.953,30.746,21.02
			c6.886,1.246,36.105,0.465,47.605-0.5c18.376-1.541,36.096-4,36.051-26.614c-0.022-11.495-1.866-23.558-3.25-34.985
			c-1.42-11.725-3.657-24.763-11.009-34.424L563.509-107L555.592-125.642z M571.125-256.926c-3.012-1.448-7.11,0.821-9.152,5.068
			c-2.88,5.992-1.255,8.865,1.757,10.313c3.012,1.446,6.271,0.923,9.151-5.069C575.314-251.674,574.083-255.504,571.125-256.926z
			 M615.152-90.856c2.801-10.198,6.24-16.64,6.24-16.64l-27.363,4.874c6.676,4.038,12.408,8.09,17.389,12.347
			c-3.907,16.532-6.033,30.913,12.407,54.519c1.866,2.392,3.924,4.762,6.182,7.099l2.455-2.049l0.077,4.574
			c0.894,0.857,1.809,1.712,2.762,2.558c0,0,1.895-6.159,2.377-15.765C638.479-55.36,637.436-69.155,615.152-90.856z
			 M718.801-62.298c-10.544-4.447-21.07,5.028-22.927,8.464c-1.855,3.436-9.909,12.271-2.791,13.765
			c7.12,1.494,13.954,2.695,15.3,3.093c0,0,5.68,1.231,8.937,5.665c3.258,4.435,11.494,4.73,12.348-1.105
			C730.522-38.253,732.982-56.316,718.801-62.298z M691.143-69.632c0.383,6.637,3.197,8.361,6.533,8.17
			c3.337-0.193,5.934-2.232,5.55-8.869c-0.272-4.706-3.2-8.362-6.536-8.17C693.414-78.312,690.817-75.238,691.143-69.632z
			 M713.984-67.954c3.822,0.521,7.213-1.209,8.25-8.813c0.734-5.387-1.769-10.178-5.59-10.699c-1.607-0.22-7.514,3.424-8.25,8.813
			C707.359-71.051,710.162-68.475,713.984-67.954z M739.32-65.929c3.271-4.346,1.638-11.092,0.342-12.066
			c-3.08-2.319-8.231-0.677-11.5,3.668c-4.615,6.131-3.423,9.747-0.342,12.066C730.902-59.941,734.708-59.799,739.32-65.929z
			 M747.067-57.774c-2.234-2.483-6.888-1.946-10.393,1.205c-4.944,4.445-4.533,7.722-2.298,10.207
			c2.234,2.483,5.447,3.239,10.391-1.206C748.943-51.323,749.262-55.333,747.067-57.774z M777.278-219.871
			c-2.866-5.153-9.599-6.668-14.987-5.973c-6.647,0.855-11.288,4.831-14.718,10.418c-5.378,8.758-7.224,19.592-11.513,28.891
			c-2.312,5.01-5.143,8.547-8.932,10.664c-0.216-0.789-0.434-1.578-0.646-2.358c-4.07-14.884-5.138-29.947-12.517-42.471
			c2.477-1.883,4.729-3.965,6.665-6.26c4.645-5.507,9.109-14.155,10.043-21.39c0.419-3.251,0.278-6.477-0.32-9.6
			c-0.001-0.021-1.797-33.208-11.325-46.05c0,0-5.489,8.075-10.768,19.375c-11.552-4.89-25.146-4.232-37.466-3.423
			c-5.803,0.381-12.186,1.101-18.111,2.896C647.81-296.175,643.742-304,643.742-304c-6.769,9.123-10.469,28.501-12.047,38.976
			c-4.479,14.665-0.067,33.441,10.197,43.617c0.909,0.901,1.881,1.734,2.88,2.534c-7.084,12.649-9.476,28.679-13.281,42.471
			c-3.795,13.757-6.524,38.568,3.369,50.287c9.686,11.475,15.262,14.326,32.192,14.299c7.08-0.012,48.947,5.316,58.574-16.15
			c4.896-10.92,6.674-21.082,5.238-31.794c3.239-1.192,6.297-2.892,9.069-5.212c5.802-4.857,9.29-11.596,12.11-18.479
			c2.678-6.533,4.895-13.246,7.434-19.834c0.432,0.194,0.891,0.367,1.395,0.5c5.477,1.438,10.16,0.646,14.58-2.891
			C779.65-209.036,779.668-215.574,777.278-219.871z"/>
		<path fill="#E5E1D7" d="M273.773-218.873c-1-0.8-1.971-1.633-2.88-2.534c-10.264-10.176-14.677-28.952-10.197-43.617
			c-0.644,4.275-0.937,7.076-0.937,7.076l24.172-22.016c-0.76-1.792-1.513-3.525-2.248-5.188c5.926-1.795,12.309-2.514,18.112-2.896
			c12.321-0.81,25.914-1.467,37.466,3.423c-0.701,1.501-1.399,3.057-2.079,4.661l24.172,22.016c0.599,3.123,0.739,6.348,0.32,9.599
			c-0.934,7.234-5.398,15.883-10.042,21.39c-1.936,2.295-4.188,4.377-6.665,6.26c-1.849-3.137-4.086-6.117-6.874-8.892
			c-7.002-6.969-17.119-9.27-26.167-6.878c0.599-0.356,7.263-4.379,5.076-5.366c-2.29-1.034-5.124-1.273-5.124-1.273
			c-1.282-0.173-4.469,0.563-5.56,1.4c-1.075,0.827,5.362,5.136,5.543,5.256c-4.401,1.175-8.547,3.456-11.953,6.861
			c-0.218,0.219-0.426,0.444-0.635,0.669c-1.979,0.073-7.016-6.627-8.773-5.577C281.938-230.58,277.283-225.139,273.773-218.873z
			 M320.431-250.164c-0.113,1.934,2.887,1.922,3,0c0.467-7.96,13.073-6.192,13.569,1c0.132,1.919,3.133,1.932,3,0
			C339.24-260.202,321.125-262.01,320.431-250.164z M281.432-250.164c0.576-6.759,14.1-7.426,14.569,0c0.122,1.921,3.122,1.933,3,0
			c-0.717-11.341-19.662-10.645-20.569,0C278.268-248.235,281.269-248.251,281.432-250.164z"/>
		<path fill="#E5E1D7" d="M335.182-279.964c0.68-1.604,1.378-3.16,2.079-4.661c5.278-11.3,10.768-19.375,10.768-19.375
			c9.531,12.847,11.325,46.051,11.325,46.051l0,0L335.182-279.964z M347.687-293.667c0,0-3.883,5.711-7.082,13.25l11.511,4.308
			C352.117-276.109,352.941-286.585,347.687-293.667z"/>
		<path fill="#ED978F" d="M340.605-280.417l11.511,4.308c0,0,0.824-10.476-4.43-17.558
			C347.687-293.667,343.804-287.956,340.605-280.417z"/>
		<path fill="#E5E1D7" d="M259.759-257.949c0,0,0.292-2.8,0.937-7.076c1.578-10.474,5.278-29.853,12.047-38.976
			c0,0,4.068,7.825,8.941,18.848c0.735,1.663,1.488,3.396,2.248,5.188L259.759-257.949z M268.653-276.109l10.511-2.308
			c-3.198-7.539-6.082-13.25-6.082-13.25C267.829-284.585,268.653-276.109,268.653-276.109z"/>
		<path fill="#E5E1D7" d="M354.626-127.967c4.896-10.92,6.674-21.082,5.239-31.794c3.239-1.192,6.297-2.892,9.069-5.212
			c5.802-4.857,9.29-11.596,12.111-18.479c2.677-6.533,4.894-13.246,7.433-19.834c0.433,0.194,0.891,0.367,1.395,0.5
			c5.477,1.438,10.16,0.646,14.58-2.891c4.197-3.36,4.215-9.898,1.825-14.195c-2.866-5.153-9.599-6.668-14.987-5.973
			c-6.647,0.855-11.288,4.831-14.718,10.418c-5.377,8.758-7.223,19.592-11.513,28.891c-2.311,5.01-5.142,8.547-8.931,10.664
			c-0.216-0.789-0.434-1.578-0.647-2.358c-4.071-14.884-5.137-29.947-12.517-42.471c-1.849-3.137-4.086-6.117-6.874-8.892
			c-7.002-6.969-17.119-9.27-26.167-6.878c-0.028,0.017-0.047,0.028-0.047,0.028s-0.014-0.01-0.017-0.012
			c-4.401,1.175-8.547,3.456-11.953,6.861c-0.218,0.219-0.426,0.444-0.635,0.669c-1.979,0.073-7.016-6.627-8.773-5.577
			c-6.562,3.92-11.217,9.361-14.727,15.627c-7.084,12.649-9.476,28.679-13.281,42.471c-3.795,13.757-6.524,38.568,3.369,50.287
			c9.686,11.475,15.262,14.326,32.192,14.299C303.133-111.828,345-106.5,354.626-127.967z"/>
		<path fill="#FEFEFF" d="M323.431-250.164c0.467-7.96,13.073-6.192,13.569,1c0.132,1.919,3.133,1.932,3,0
			c-0.76-11.038-18.875-12.846-19.569-1C320.318-248.23,323.318-248.242,323.431-250.164z"/>
		<path fill="#FEFEFF" d="M281.432-250.164c0.576-6.759,14.1-7.426,14.569,0c0.122,1.921,3.122,1.933,3,0
			c-0.717-11.341-19.662-10.645-20.569,0C278.268-248.235,281.269-248.251,281.432-250.164z"/>
		<path fill="#ED978F" d="M268.653-276.109l10.511-2.308c-3.198-7.539-6.082-13.25-6.082-13.25
			C267.829-284.585,268.653-276.109,268.653-276.109z"/>
		<path fill="#ED978F" d="M315.001-241.836c-2.29-1.034-5.124-1.273-5.124-1.273c-1.282-0.173-4.469,0.563-5.56,1.4
			c-1.075,0.827,5.362,5.136,5.543,5.256c0.002,0.002,0.017,0.012,0.017,0.012s0.02-0.012,0.047-0.028
			C310.524-236.826,317.188-240.849,315.001-241.836z"/>
		<path fill="#E5E1D7" d="M644.773-218.873c-1-0.8-1.971-1.633-2.88-2.534c-10.264-10.176-14.677-28.952-10.197-43.617
			c-0.644,4.275-0.937,7.076-0.937,7.076l24.173-22.016c-0.761-1.792-1.514-3.525-2.248-5.188
			c5.926-1.795,12.309-2.514,18.111-2.896c12.32-0.81,25.914-1.467,37.466,3.423c-0.701,1.501-1.398,3.057-2.079,4.661
			l24.172,22.016v-0.001c0.599,3.123,0.739,6.349,0.32,9.6c-0.934,7.234-5.398,15.883-10.043,21.39
			c-1.936,2.295-4.188,4.377-6.665,6.26c-1.849-3.137-4.086-6.117-6.874-8.892c-7.002-6.969-17.119-9.27-26.166-6.878
			c0.6-0.357,7.263-4.379,5.076-5.366c-2.29-1.034-5.124-1.273-5.124-1.273c-1.282-0.173-4.47,0.563-5.56,1.4
			c-1.074,0.827,5.361,5.135,5.543,5.256c-4.401,1.175-8.548,3.456-11.953,6.861c-0.219,0.219-0.426,0.444-0.635,0.669
			c-1.979,0.073-7.016-6.627-8.773-5.577C652.938-230.58,648.283-225.139,644.773-218.873z M691.432-250.164
			c-0.113,1.934,2.888,1.922,3,0c0.467-7.96,13.073-6.192,13.568,1c0.132,1.919,3.133,1.932,3,0
			C710.24-260.202,692.126-262.01,691.432-250.164z M652.432-250.164c0.576-6.759,14.1-7.426,14.568,0c0.121,1.921,3.122,1.933,3,0
			c-0.717-11.341-19.662-10.645-20.568,0C649.268-248.235,652.269-248.251,652.432-250.164z"/>
		<path fill="#E5E1D7" d="M706.182-279.964c0.681-1.604,1.378-3.16,2.079-4.661c5.278-11.3,10.768-19.375,10.768-19.375
			c9.528,12.843,11.324,46.03,11.325,46.05v0.001L706.182-279.964z M718.688-293.667c0,0-3.884,5.711-7.082,13.25l11.512,4.308
			C723.117-276.109,723.941-286.585,718.688-293.667z"/>
		<path fill="#ED978F" d="M711.605-280.417l11.512,4.308c0,0,0.824-10.476-4.43-17.558
			C718.688-293.667,714.804-287.956,711.605-280.417z"/>
		<path fill="#E5E1D7" d="M630.759-257.949c0,0,0.292-2.8,0.937-7.076c1.578-10.474,5.278-29.853,12.047-38.976
			c0,0,4.068,7.825,8.941,18.848c0.734,1.663,1.487,3.396,2.248,5.188L630.759-257.949z M639.653-276.109l10.511-2.308
			c-3.198-7.539-6.082-13.25-6.082-13.25C638.829-284.585,639.653-276.109,639.653-276.109z"/>
		<path fill="#E5E1D7" d="M762.291-225.844c-6.647,0.855-11.288,4.831-14.718,10.418c-5.378,8.758-7.224,19.592-11.513,28.891
			c-2.312,5.01-5.143,8.547-8.932,10.664c-0.216-0.789-0.434-1.578-0.646-2.358c-4.07-14.884-5.138-29.947-12.517-42.471
			c-1.849-3.137-4.086-6.117-6.874-8.892c-7.002-6.969-17.119-9.27-26.166-6.878c-0.028,0.017-0.048,0.028-0.048,0.028
			s-0.015-0.01-0.017-0.012c-4.401,1.175-8.548,3.456-11.953,6.861c-0.219,0.219-0.426,0.444-0.635,0.669
			c-1.979,0.073-7.016-6.627-8.773-5.577c-6.562,3.92-11.217,9.361-14.727,15.627c-7.084,12.649-9.476,28.679-13.281,42.471
			c-3.795,13.757-6.524,38.568,3.369,50.287c9.686,11.475,15.262,14.326,32.192,14.299c7.08-0.012,48.947,5.316,58.574-16.15
			c4.896-10.92,6.674-21.082,5.238-31.794c3.239-1.192,6.297-2.892,9.069-5.212c5.802-4.857,9.29-11.596,12.11-18.479
			c2.678-6.533,4.895-13.246,7.434-19.834c0.432,0.194,0.891,0.367,1.395,0.5c5.477,1.438,10.16,0.646,14.58-2.891
			c4.197-3.36,4.215-9.898,1.825-14.195C774.412-225.024,767.68-226.539,762.291-225.844z"/>
		<path fill="#FEFEFF" d="M694.432-250.164c0.467-7.96,13.073-6.192,13.568,1c0.132,1.919,3.133,1.932,3,0
			c-0.76-11.038-18.874-12.846-19.568-1C691.318-248.23,694.319-248.242,694.432-250.164z"/>
		<path fill="#FEFEFF" d="M652.432-250.164c0.576-6.759,14.1-7.426,14.568,0c0.121,1.921,3.122,1.933,3,0
			c-0.717-11.341-19.662-10.645-20.568,0C649.268-248.235,652.269-248.251,652.432-250.164z"/>
		<path fill="#ED978F" d="M639.653-276.109l10.511-2.308c-3.198-7.539-6.082-13.25-6.082-13.25
			C638.829-284.585,639.653-276.109,639.653-276.109z"/>
		<path fill="#ED978F" d="M686.002-241.836c-2.29-1.034-5.124-1.273-5.124-1.273c-1.282-0.173-4.47,0.563-5.56,1.4
			c-1.074,0.827,5.361,5.135,5.543,5.256c0.002,0.002,0.017,0.012,0.017,0.012s0.02-0.012,0.048-0.028
			C681.525-236.827,688.188-240.849,686.002-241.836z"/>
		<path fill="#E5E1D7" d="M641.773-593.873c-1-0.8-1.971-1.633-2.88-2.534c-10.264-10.175-14.677-28.952-10.197-43.617
			c-0.644,4.275-0.937,7.076-0.937,7.076l24.173-22.016c-0.761-1.792-1.514-3.525-2.248-5.188
			c5.926-1.795,12.309-2.514,18.111-2.896c12.32-0.81,25.914-1.467,37.466,3.423c-0.701,1.501-1.398,3.057-2.079,4.661
			l24.172,22.016v-0.001c0.599,3.123,0.739,6.349,0.32,9.6c-0.934,7.234-5.398,15.883-10.043,21.39
			c-1.936,2.295-4.188,4.377-6.665,6.26c-1.849-3.137-4.086-6.117-6.874-8.892c-7.002-6.969-17.119-9.27-26.166-6.878
			c0.6-0.357,7.263-4.379,5.076-5.366c-2.29-1.034-5.124-1.273-5.124-1.273c-1.282-0.173-4.47,0.563-5.56,1.4
			c-1.074,0.827,5.361,5.135,5.543,5.256c-4.401,1.175-8.548,3.455-11.953,6.861c-0.219,0.219-0.426,0.444-0.635,0.669
			c-1.979,0.073-7.016-6.627-8.773-5.577C649.938-605.58,645.283-600.139,641.773-593.873z M688.432-625.164
			c-0.113,1.934,2.888,1.922,3,0c0.467-7.96,13.073-6.192,13.568,1c0.132,1.919,3.133,1.932,3,0
			C707.24-635.202,689.126-637.01,688.432-625.164z M649.432-625.164c0.576-6.759,14.1-7.426,14.568,0c0.121,1.921,3.122,1.933,3,0
			c-0.717-11.341-19.662-10.645-20.568,0C646.268-623.235,649.269-623.251,649.432-625.164z"/>
		<path fill="#E5E1D7" d="M703.182-654.964c0.681-1.604,1.378-3.16,2.079-4.661c5.278-11.3,10.768-19.375,10.768-19.375
			c9.528,12.843,11.324,46.03,11.325,46.05v0.001L703.182-654.964z M715.688-668.667c0,0-3.884,5.711-7.082,13.25l11.512,4.308
			C720.117-651.109,720.941-661.585,715.688-668.667z"/>
		<path fill="#ED978F" d="M708.605-655.417l11.512,4.308c0,0,0.824-10.476-4.43-17.558
			C715.688-668.667,711.804-662.956,708.605-655.417z"/>
		<path fill="#E5E1D7" d="M627.759-632.949c0,0,0.292-2.8,0.937-7.076c1.578-10.474,5.278-29.853,12.047-38.976
			c0,0,4.068,7.825,8.941,18.848c0.734,1.663,1.487,3.396,2.248,5.188L627.759-632.949z M636.653-651.109l10.511-2.308
			c-3.198-7.539-6.082-13.25-6.082-13.25C635.829-659.585,636.653-651.109,636.653-651.109z"/>
		<path fill="#E5E1D7" d="M631.861-501.115c9.686,11.475,15.262,14.326,32.192,14.299c7.08-0.012,48.947,5.316,58.574-16.15
			c4.896-10.92,6.674-21.082,5.238-31.794c3.239-1.192,6.297-2.892,9.069-5.212c5.802-4.857,9.29-11.596,12.11-18.479
			c2.678-6.533,4.895-13.246,7.434-19.834c0.432,0.194,0.891,0.367,1.395,0.5c5.477,1.438,10.16,0.646,14.58-2.891
			c4.197-3.36,4.215-9.898,1.825-14.195c-2.866-5.153-9.599-6.668-14.987-5.973c-6.647,0.855-11.288,4.831-14.718,10.418
			c-5.378,8.758-7.224,19.592-11.513,28.891c-2.312,5.01-5.143,8.547-8.932,10.664c-0.216-0.789-0.434-1.578-0.646-2.358
			c-4.07-14.883-5.138-29.947-12.517-42.471c-1.849-3.137-4.086-6.117-6.874-8.892c-7.002-6.969-17.119-9.27-26.166-6.878
			c-0.028,0.017-0.048,0.028-0.048,0.028s-0.015-0.01-0.017-0.011c-4.401,1.175-8.548,3.455-11.953,6.861
			c-0.219,0.219-0.426,0.444-0.635,0.669c-1.979,0.073-7.016-6.627-8.773-5.577c-6.562,3.92-11.217,9.361-14.727,15.627
			c-7.084,12.649-9.476,28.678-13.281,42.471C624.696-537.646,621.968-512.834,631.861-501.115z"/>
		<path fill="#FEFEFF" d="M691.432-625.164c0.467-7.96,13.073-6.192,13.568,1c0.132,1.919,3.133,1.932,3,0
			c-0.76-11.038-18.874-12.846-19.568-1C688.318-623.23,691.319-623.242,691.432-625.164z"/>
		<path fill="#FEFEFF" d="M649.432-625.164c0.576-6.759,14.1-7.426,14.568,0c0.121,1.921,3.122,1.933,3,0
			c-0.717-11.341-19.662-10.645-20.568,0C646.268-623.235,649.269-623.251,649.432-625.164z"/>
		<path fill="#ED978F" d="M636.653-651.109l10.511-2.308c-3.198-7.539-6.082-13.25-6.082-13.25
			C635.829-659.585,636.653-651.109,636.653-651.109z"/>
		<path fill="#ED978F" d="M683.002-616.836c-2.29-1.034-5.124-1.273-5.124-1.273c-1.282-0.173-4.47,0.563-5.56,1.4
			c-1.074,0.827,5.361,5.135,5.543,5.256c0.002,0.001,0.017,0.011,0.017,0.011s0.02-0.012,0.048-0.028
			C678.525-611.827,685.188-615.849,683.002-616.836z"/>
		<path fill="#3E3D3F" d="M217.646-422.8c-4.847-2.232-8.354-5.123-9.754-8.607c-4.679-11.641-9.147-28.415-5.252-42.254
			c-0.607,4.075-0.881,6.712-0.881,6.712l24.172-22.016c-0.76-1.792-1.513-3.525-2.248-5.187c5.925-1.795,12.309-2.515,18.111-2.896
			c12.321-0.81,25.914-1.467,37.466,3.423c-0.701,1.501-1.399,3.057-2.079,4.66l24.172,22.016c0.599,3.123,0.739,6.349,0.32,9.6
			c-0.934,7.234-5.398,19.883-10.042,25.39c-1.902,2.255-4.309,4.232-7.096,5.941c-1.599-5.453-3.694-9.837-6.443-12.573
			c-7.002-6.969-17.119-9.27-26.167-6.878c0.599-0.357,7.263-4.379,5.076-5.366c-2.29-1.034-5.124-1.273-5.124-1.273
			c-1.282-0.173-4.469,0.563-5.56,1.4c-1.075,0.827,5.362,5.135,5.543,5.256c-4.401,1.175-8.547,3.455-11.953,6.861
			c-0.218,0.219-0.426,0.444-0.635,0.669c-1.979,0.073-7.016-6.627-8.773-5.577C224.763-440.072,220.621-432.502,217.646-422.8z
			 M262.431-459.164c-0.113,1.934,2.887,1.922,3,0c0.467-7.961,13.073-6.193,13.569,1c0.132,1.919,3.133,1.932,3,0
			C281.24-469.202,263.126-471.011,262.431-459.164z M238-459.164c0.122,1.921,3.122,1.933,3,0
			c-0.717-11.341-19.662-10.646-20.569,0c-0.164,1.929,2.837,1.913,3,0C224.007-465.924,237.531-466.59,238-459.164z"/>
		<path fill="#3E3D3F" d="M277.182-488.965c0.68-1.604,1.378-3.159,2.079-4.66c5.278-11.3,10.768-19.375,10.768-19.375
			c9.531,12.847,11.325,46.051,11.325,46.051l0,0L277.182-488.965z M289.687-502.667c0,0-3.883,5.711-7.082,13.249l11.511,4.309
			C294.117-485.109,294.941-495.586,289.687-502.667z"/>
		<path fill="#ED978F" d="M282.605-489.418l11.511,4.309c0,0,0.824-10.477-4.43-17.558
			C289.687-502.667,285.804-496.956,282.605-489.418z"/>
		<path fill="#3E3D3F" d="M201.759-466.949c0,0,0.274-2.637,0.881-6.712c1.547-10.385,5.256-30.112,12.102-39.339
			c0,0,4.068,7.825,8.941,18.848c0.735,1.662,1.487,3.395,2.248,5.187L201.759-466.949z M210.653-485.109l10.511-2.309
			c-3.198-7.538-6.082-13.249-6.082-13.249C209.829-493.586,210.653-485.109,210.653-485.109z"/>
		<path fill="#3E3D3F" d="M287.044-334.625c11.293-1.209,18.456,0.434,22.027-16.195c1.708-7.955,0.475-14.68,0.428-24.18
			c-0.036-7.371-4.634-13.5-11.5-13.5c-3.514,0-6.45,1.242-8.687,3.265c-0.397-14.863-1.6-29.943-4.778-40.784
			c-1.599-5.453-3.694-9.837-6.443-12.573c-7.002-6.969-17.119-9.27-26.167-6.878c-0.028,0.017-0.047,0.028-0.047,0.028
			s-0.014-0.01-0.017-0.011c-4.401,1.175-8.547,3.455-11.953,6.861c-0.218,0.219-0.426,0.444-0.635,0.669
			c-1.979,0.073-7.016-6.627-8.773-5.577c-5.737,3.428-9.879,10.998-12.854,20.7c-5.154,16.809-6.799,40.024-7.137,59.246
			c9.148,2.146,18.579,3.176,27.49,3.554c12.206,0.518,12.256,19.52,0,19c-8.923-0.378-18.313-1.379-27.587-3.271
			c0.052,0.211,0.101,0.423,0.163,0.631c0.01,0.419,0.02,0.832,0.031,1.237l0.393-0.011c1.766,4.45,5.758,7.922,12.001,7.913
			C235.883-334.518,278.57-333.719,287.044-334.625z"/>
		<path fill="#848484" d="M265.431-459.164c0.467-7.961,13.073-6.193,13.569,1c0.132,1.919,3.133,1.932,3,0
			c-0.76-11.038-18.874-12.847-19.569-1C262.318-457.23,265.318-457.242,265.431-459.164z"/>
		<path fill="#848484" d="M238-459.164c0.122,1.921,3.122,1.933,3,0c-0.717-11.341-19.662-10.646-20.569,0
			c-0.164,1.929,2.837,1.913,3,0C224.007-465.924,237.531-466.59,238-459.164z"/>
		<path fill="#ED978F" d="M210.653-485.109l10.511-2.309c-3.198-7.538-6.082-13.249-6.082-13.249
			C209.829-493.586,210.653-485.109,210.653-485.109z"/>
		<path fill="#ED978F" d="M257.001-450.836c-2.29-1.034-5.124-1.273-5.124-1.273c-1.282-0.173-4.469,0.563-5.56,1.4
			c-1.075,0.827,5.362,5.135,5.543,5.256c0.002,0.001,0.017,0.011,0.017,0.011s0.02-0.012,0.047-0.028
			C252.524-445.827,259.188-449.849,257.001-450.836z"/>
		<path fill="#3E3D3F" d="M238-360c-8.912-0.378-18.342-1.408-27.49-3.554c-11.834-2.776-23.195-7.421-32.348-14.95
			c-7.5-6.169-14.057-14.9-11.627-25.166c0.314-1.328,1.232-2.822,2.004-3.348c1.131-0.77,2.351-0.689,3.266-0.516
			c3.822,0.731,6.291,2.882,7.993,6.328c5.425,10.986,21.811,1.355,16.406-9.59c-6.549-13.264-25.292-20.771-38.19-11.992
			c-14.91,10.149-13.064,33.014-3.729,46.252c12.898,18.291,34.187,27.789,56.129,32.264c9.274,1.892,18.664,2.893,27.587,3.271
			C250.256-340.48,250.206-359.482,238-360z"/>
		<path fill="#3E3D3F" d="M498.925-407.592c-2.749,2.736-4.845,7.12-6.443,12.573c-2.787-1.709-5.193-3.686-7.096-5.941
			c-4.644-5.507-9.109-18.155-10.042-25.39c-0.419-3.251-0.279-6.477,0.32-9.6l24.172-22.016c-0.68-1.604-1.378-3.159-2.079-4.66
			c11.552-4.89,25.145-4.232,37.466-3.423c5.803,0.381,12.186,1.101,18.111,2.896c-0.734,1.662-1.487,3.395-2.248,5.187
			l24.172,22.016c0,0-0.274-2.637-0.881-6.712c3.895,13.839-0.573,30.613-5.252,42.254c-1.4,3.484-4.907,6.375-9.754,8.607
			c-2.975-9.702-7.117-17.272-12.854-20.7c-1.757-1.05-6.794,5.65-8.773,5.577c-0.209-0.225-0.417-0.45-0.635-0.669
			c-3.406-3.406-7.552-5.686-11.953-6.861c0.181-0.121,6.618-4.429,5.543-5.256c-1.09-0.838-4.277-1.573-5.56-1.4
			c0,0-2.834,0.239-5.124,1.273c-2.187,0.987,4.477,5.009,5.076,5.366C516.044-416.861,505.927-414.561,498.925-407.592z
			 M536.016-428.164c-0.122,1.933,2.878,1.921,3,0c0.469-7.426,13.993-6.76,14.569,0c0.163,1.913,3.164,1.929,3,0
			C555.678-438.81,536.733-439.505,536.016-428.164z M498.017-427.164c0.496-7.193,13.102-8.961,13.569-1
			c0.113,1.922,3.113,1.934,3,0c-0.695-11.847-18.809-10.038-19.569,1C494.884-425.232,497.884-425.245,498.017-427.164z"/>
		<path fill="#3E3D3F" d="M499.835-457.965l-24.172,22.016l0,0c0,0,1.794-33.204,11.325-46.051c0,0,5.489,8.075,10.768,19.375
			C498.457-461.124,499.155-459.568,499.835-457.965z M482.9-454.109l11.511-4.309c-3.198-7.538-7.082-13.249-7.082-13.249
			C482.076-464.586,482.9-454.109,482.9-454.109z"/>
		<path fill="#ED978F" d="M494.411-458.418c-3.198-7.538-7.082-13.249-7.082-13.249c-5.254,7.081-4.43,17.558-4.43,17.558
			L494.411-458.418z"/>
		<path fill="#3E3D3F" d="M551.085-457.965c0.76-1.792,1.513-3.525,2.248-5.187c4.873-11.023,8.941-18.848,8.941-18.848
			c6.846,9.227,10.555,28.954,12.102,39.339c0.607,4.075,0.881,6.712,0.881,6.712L551.085-457.965z M561.934-469.667
			c0,0-2.883,5.711-6.082,13.249l10.511,2.309C566.364-454.109,567.188-462.586,561.934-469.667z"/>
		<path fill="#3E3D3F" d="M539.017-329c8.912-0.378,18.342-1.408,27.49-3.554c-0.337-19.222-1.983-42.437-7.137-59.246
			c-2.975-9.702-7.117-17.272-12.854-20.7c-1.757-1.05-6.794,5.65-8.773,5.577c-0.209-0.225-0.417-0.45-0.635-0.669
			c-3.406-3.406-7.552-5.686-11.953-6.861c-0.002,0.001-0.017,0.011-0.017,0.011s-0.02-0.012-0.047-0.028
			c-9.047-2.392-19.165-0.091-26.167,6.878c-2.749,2.736-4.845,7.12-6.443,12.573c-3.178,10.84-4.381,25.92-4.778,40.784
			c-2.237-2.022-5.173-3.265-8.687-3.265c-6.866,0-11.464,6.129-11.5,13.5c-0.046,9.5-1.28,16.225,0.428,24.18
			c3.572,16.629,10.734,14.986,22.027,16.195c8.474,0.906,51.161,0.107,64.044,0.125c6.243,0.009,10.235-3.463,12.001-7.913
			l0.393,0.011c0.011-0.405,0.021-0.818,0.031-1.237c0.062-0.208,0.11-0.42,0.163-0.631c-9.274,1.892-18.664,2.893-27.587,3.271
			C526.761-309.48,526.811-328.482,539.017-329z"/>
		<path fill="#848484" d="M511.585-428.164c0.113,1.922,3.113,1.934,3,0c-0.695-11.847-18.809-10.038-19.569,1
			c-0.133,1.932,2.868,1.919,3,0C498.512-434.357,511.119-436.125,511.585-428.164z"/>
		<path fill="#848484" d="M539.016-428.164c0.469-7.426,13.993-6.76,14.569,0c0.163,1.913,3.164,1.929,3,0
			c-0.907-10.646-19.852-11.341-20.569,0C535.894-426.231,538.895-426.243,539.016-428.164z"/>
		<path fill="#ED978F" d="M555.853-456.418l10.511,2.309c0,0,0.824-8.477-4.43-15.558
			C561.934-469.667,559.051-463.956,555.853-456.418z"/>
		<path fill="#ED978F" d="M530.698-419.709c-1.09-0.838-4.277-1.573-5.56-1.4c0,0-2.834,0.239-5.124,1.273
			c-2.187,0.987,4.477,5.009,5.076,5.366c0.028,0.017,0.047,0.028,0.047,0.028s0.014-0.01,0.017-0.011
			C525.336-414.574,531.773-418.882,530.698-419.709z"/>
		<path fill="#3E3D3F" d="M597.22-370.205c1.702-3.446,4.17-5.597,7.993-6.328c0.916-0.174,2.135-0.254,3.266,0.516
			c0.771,0.525,1.689,2.02,2.004,3.348c2.429,10.266-4.128,18.997-11.627,25.166c-9.153,7.529-20.514,12.174-32.348,14.95
			c-9.148,2.146-18.579,3.176-27.49,3.554c-12.206,0.518-12.256,19.52,0,19c8.923-0.378,18.313-1.379,27.587-3.271
			c21.942-4.476,43.231-13.974,56.129-32.264c9.335-13.238,11.181-36.103-3.729-46.252c-12.898-8.779-31.641-1.271-38.19,11.992
			C575.409-368.85,591.794-359.219,597.22-370.205z"/>
		<path fill="#E5E1D7" d="M64.321-59.905c-17.24-0.152-26.477,19.088-27.092,24.938c-0.617,5.85-6.775,22.777,4.001,20.779
			c10.776-1.999,20.987-4.243,23.091-4.462c0,0,8.621-1.54,15.703,2.771c7.08,4.311,18.726,0.002,16.569-8.619
			C94.44-33.119,87.511-59.699,64.321-59.905z"/>
		<path fill="#E5E1D7" d="M54.368-65.023c5.625-1.466,9.357-5.82,6.444-17.009c-2.066-7.93-8.3-13.17-13.922-11.705
			c-2.365,0.615-8.506,9.079-6.442,17.01C43.359-65.542,48.745-63.559,54.368-65.023z"/>
		<path fill="#E5E1D7" d="M90.833-76.728c2.065-7.931-4.076-16.395-6.441-17.01c-5.623-1.465-11.857,3.775-13.923,11.705
			c-2.914,11.188,0.819,15.543,6.444,17.009C82.535-63.559,87.92-65.542,90.833-76.728z"/>
		<path fill="#E5E1D7" d="M106.301-69.806c-4.538-2.182-10.712,1.236-13.79,7.637c-4.339,9.028-1.89,13.356,2.647,15.54
			c4.541,2.179,9.451,1.391,13.791-7.638C112.614-61.894,110.758-67.664,106.301-69.806z"/>
		<path fill="#E5E1D7" d="M38.013-62.169c-3.077-6.4-9.25-9.818-13.789-7.637c-4.458,2.142-6.313,7.912-2.648,15.539
			c4.34,9.028,9.25,9.816,13.79,7.638C39.904-48.813,42.354-53.141,38.013-62.169z"/>
		<path fill="#D6B48E" d="M28.666-604.113c0.236,0.84,0.496,1.663,0.774,2.471L30.441-604L28.666-604.113z"/>
		<path fill="#D6B48E" d="M52.932-648.964c-0.761-1.792-1.513-3.525-2.248-5.188c5.925-1.795,12.308-2.514,18.111-2.896
			c12.32-0.81,25.914-1.467,37.466,3.423c-0.701,1.501-1.399,3.057-2.079,4.661l20.256,18.449l-18.141,37.012
			c-10.937-5.949-26.08-3.991-34.879,2.383c-6.801-5.868-15.35-6.96-23.176-4.405l-15.429-35.116L52.932-648.964z M89.432-619.164
			c-0.113,1.934,2.887,1.922,3,0c0.467-7.96,13.073-6.192,13.568,1c0.132,1.919,3.133,1.932,3,0
			C108.24-629.202,90.126-631.01,89.432-619.164z M78.878-605.442c0,0,7.413-4.36,5.124-5.394c-2.29-1.034-5.124-1.273-5.124-1.273
			c-1.282-0.173-4.47,0.563-5.56,1.401C72.229-609.87,78.878-605.442,78.878-605.442z M47.432-619.164c-0.164,1.929,2.837,1.913,3,0
			c0.576-6.759,14.099-7.426,14.568,0c0.122,1.921,3.122,1.933,3,0C67.283-630.505,48.338-629.809,47.432-619.164z"/>
		<path fill="#D6B48E" d="M124.419-602.429c0.085-0.209,0.167-0.421,0.25-0.632L124.164-603L124.419-602.429z"/>
		<path fill="#D6B48E" d="M104.182-648.964c0.68-1.604,1.378-3.16,2.079-4.661c5.278-11.3,10.768-19.375,10.768-19.375
			c6.979,9.407,9.807,29.715,10.823,39.923l-1.7-0.934l-1.713,3.496L104.182-648.964z M116.688-662.667c0,0-3.884,5.711-7.082,13.25
			l11.512,4.308C121.117-645.109,121.941-655.585,116.688-662.667z"/>
		<path fill="#FFD9D9" d="M109.605-649.417l11.512,4.308c0,0,0.824-10.476-4.43-17.558
			C116.688-662.667,112.804-656.956,109.605-649.417z"/>
		<path fill="#D6B48E" d="M29.956-635.707c1.707-10.756,5.365-28.639,11.786-37.293c0,0,4.068,7.825,8.941,18.848
			c0.735,1.663,1.487,3.396,2.248,5.188l-20.118,18.323l-2.359-5.369L29.956-635.707z M37.652-645.109l10.512-2.308
			c-3.198-7.539-6.082-13.25-6.082-13.25C36.828-653.585,37.652-645.109,37.652-645.109z"/>
		<path fill="#967F6C" d="M92.432-619.164c0.467-7.96,13.073-6.192,13.568,1c0.132,1.919,3.133,1.932,3,0
			c-0.76-11.038-18.874-12.846-19.568-1C89.318-617.23,92.319-617.242,92.432-619.164z"/>
		<path fill="#967F6C" d="M47.432-619.164c-0.164,1.929,2.837,1.913,3,0c0.576-6.759,14.099-7.426,14.568,0
			c0.122,1.921,3.122,1.933,3,0C67.283-630.505,48.338-629.809,47.432-619.164z"/>
		<path fill="#FFD9D9" d="M37.652-645.109l10.512-2.308c-3.198-7.539-6.082-13.25-6.082-13.25
			C36.828-653.585,37.652-645.109,37.652-645.109z"/>
		<path fill="#FFD9D9" d="M78.878-605.442c0,0,7.413-4.36,5.124-5.394c-2.29-1.034-5.124-1.273-5.124-1.273
			c-1.282-0.173-4.47,0.563-5.56,1.401C72.229-609.87,78.878-605.442,78.878-605.442z"/>
		<path fill="#D6B48E" d="M124.438-630.515l-18.141,37.012c0.549,0.298,1.097,0.598,1.623,0.937
			c3.448,2.221,6.234,4.915,8.556,7.947l16.606,1.62l-8.663-19.429L124.164-603l0.505-0.061L142-605.135l-12.849-15.378l9.849-6.436
			l-11.149-6.128l-1.7-0.934L124.438-630.515z"/>
		<path fill="#D6B48E" d="M28.666-604.113L30.441-604l-1.001,2.358L21.523-583l11.685-1.523c1.451-1.906,3.083-3.694,4.967-5.301
			c3.045-2.595,6.479-4.531,10.066-5.702l-15.429-35.116l-2.359-5.369l-0.498,0.304l-14.351,8.758l9.849,5.436l-12.849,16.378
			L28.666-604.113z"/>
		<path fill="#D6B48E" d="M107.92-592.566c-0.526-0.339-1.074-0.639-1.623-0.937c-10.937-5.949-26.08-3.991-34.879,2.383
			c-6.801-5.868-15.35-6.96-23.176-4.405c-3.587,1.171-7.021,3.107-10.066,5.702c-1.885,1.606-3.516,3.395-4.967,5.301
			c-7.353,9.661-9.589,22.699-11.009,34.423c-1.384,11.429-3.228,23.49-3.25,34.986C18.904-492.5,36.624-490.041,55-488.5
			c11.5,0.964,40.72,1.747,47.605,0.5c16.936-3.066,27.809-4.663,30.746-21.019c1.386-7.717,1.338-15.375,0.42-22.959
			c12.934-3.662,24.298-11.099,34.357-20.358c0.437,1.352,0.999,2.674,1.738,3.936c5.818,9.933,18.795,13.225,28.732,7.534
			c8.751-5.012,13.541-14.01,13.817-23.935c0.251-9.011-4.284-16.541-9.617-23.306c-4.046-5.133-11.091-9.199-17.378-10.721
			c-9.85-2.383-18.921,0.177-26.717,5.949c-1.84,0.856-3.53,2.051-4.933,3.651c-2.97,3.388-6.019,6.69-9.228,9.853
			c-1.759,1.734-3.604,3.377-5.48,4.983c-0.444,0.359-0.743,0.604-0.927,0.757c-0.801,0.577-1.611,1.141-2.429,1.695
			c-1.597,1.082-3.271,2.038-4.96,2.967c-0.321,0.172-0.652,0.325-0.978,0.49c-0.273,0.103-2.187,0.979-2.666,1.148
			c-0.619,0.218-1.244,0.414-1.874,0.596c-2.187-6.526-4.79-12.7-8.756-17.881C114.154-587.652,111.368-590.346,107.92-592.566z"/>
		<path fill="#D6B48E" d="M460.363-127.061c0.083,0.211,0.165,0.423,0.25,0.632l0.255-0.571L460.363-127.061z"/>
		<path fill="#D6B48E" d="M554.591-128l1.001,2.358c0.278-0.809,0.539-1.631,0.774-2.472L554.591-128z"/>
		<path fill="#D6B48E" d="M480.851-172.965c-0.68-1.604-1.378-3.159-2.079-4.66c11.552-4.89,25.146-4.232,37.466-3.423
			c5.803,0.382,12.186,1.101,18.111,2.896c-0.735,1.662-1.488,3.396-2.248,5.188l20.119,18.323l-15.429,35.116
			c-7.826-2.556-16.375-1.463-23.176,4.404c-8.799-6.374-23.942-8.331-34.879-2.383l-18.141-37.012L480.851-172.965z
			 M517.032-143.164c-0.122,1.933,2.878,1.921,3,0c0.469-7.426,13.993-6.76,14.568,0c0.163,1.913,3.164,1.929,3,0
			C536.694-153.81,517.749-154.506,517.032-143.164z M506.154-129.441c0,0,6.649-4.429,5.56-5.268c-1.09-0.838-4.277-1.573-5.56-1.4
			c0,0-2.834,0.239-5.124,1.273C498.741-133.803,506.154-129.441,506.154-129.441z M476.032-142.164c-0.133,1.932,2.868,1.919,3,0
			c0.496-7.192,13.102-8.961,13.568-1c0.113,1.923,3.113,1.934,3,0C494.906-155.011,476.792-153.202,476.032-142.164z"/>
		<path fill="#D6B48E" d="M458.881-158.011l-1.7,0.935c1.016-10.209,3.844-30.517,10.823-39.924c0,0,5.489,8.075,10.768,19.375
			c0.701,1.501,1.399,3.057,2.079,4.66l-20.256,18.449L458.881-158.011z M463.915-169.109l11.512-4.309
			c-3.198-7.538-7.082-13.249-7.082-13.249C463.091-179.586,463.915-169.109,463.915-169.109z"/>
		<path fill="#FFD9D9" d="M475.427-173.418c-3.198-7.538-7.082-13.249-7.082-13.249c-5.254,7.081-4.43,17.558-4.43,17.558
			L475.427-173.418z"/>
		<path fill="#D6B48E" d="M532.101-172.965c0.76-1.792,1.513-3.525,2.248-5.188C539.222-189.175,543.29-197,543.29-197
			c6.421,8.654,10.08,26.537,11.786,37.293l-0.498-0.304l-2.359,5.369L532.101-172.965z M542.95-184.667
			c0,0-2.884,5.711-6.082,13.249l10.512,2.309C547.38-169.109,548.204-177.586,542.95-184.667z"/>
		<path fill="#967F6C" d="M476.032-142.164c-0.133,1.932,2.868,1.919,3,0c0.496-7.192,13.102-8.961,13.568-1
			c0.113,1.923,3.113,1.934,3,0C494.906-155.011,476.792-153.202,476.032-142.164z"/>
		<path fill="#967F6C" d="M520.032-143.164c0.469-7.426,13.993-6.76,14.568,0c0.163,1.913,3.164,1.929,3,0
			c-0.907-10.646-19.852-11.342-20.568,0C516.91-141.231,519.911-141.243,520.032-143.164z"/>
		<path fill="#FFD9D9" d="M536.868-171.418l10.512,2.309c0,0,0.824-8.477-4.43-15.558
			C542.95-184.667,540.066-178.956,536.868-171.418z"/>
		<path fill="#FFD9D9" d="M506.154-129.441c0,0,6.649-4.429,5.56-5.268c-1.09-0.838-4.277-1.573-5.56-1.4
			c0,0-2.834,0.239-5.124,1.273C498.741-133.803,506.154-129.441,506.154-129.441z"/>
		<path fill="#D6B48E" d="M477.112-116.566c0.526-0.339,1.074-0.639,1.623-0.938l-18.141-37.012l-1.713-3.495l-1.7,0.935
			l-11.149,6.127l9.849,6.437l-12.849,15.378l17.331,2.074l0.505,0.061l-0.255,0.571L451.95-107l16.606-1.62
			C470.878-111.652,473.664-114.346,477.112-116.566z"/>
		<path fill="#D6B48E" d="M556.367-128.113l16.06-1.021l-12.849-16.378l9.849-5.437l-14.351-8.758l-0.498-0.304l-2.359,5.369
			l-15.429,35.116c3.587,1.171,7.021,3.106,10.066,5.701c1.885,1.606,3.516,3.395,4.967,5.301L563.509-107l-7.917-18.642
			L554.591-128L556.367-128.113z"/>
		<path fill="#D6B48E" d="M546.856-113.824c-3.045-2.595-6.479-4.53-10.066-5.701c-7.826-2.556-16.375-1.463-23.176,4.404
			c-8.799-6.374-23.942-8.331-34.879-2.383c-0.549,0.299-1.097,0.599-1.623,0.938c-3.448,2.221-6.234,4.914-8.556,7.946
			c-3.966,5.182-6.569,11.355-8.756,17.882c-0.63-0.182-1.255-0.378-1.874-0.596c-0.479-0.17-2.393-1.045-2.666-1.148
			c-0.325-0.166-0.656-0.318-0.978-0.49c-1.688-0.93-3.363-1.885-4.96-2.967c-0.817-0.555-1.628-1.118-2.429-1.695
			c-0.184-0.153-0.482-0.398-0.927-0.758c-1.876-1.605-3.722-3.248-5.48-4.982c-3.209-3.163-6.258-6.465-9.228-9.854
			c-1.402-1.6-3.093-2.795-4.933-3.65c-7.796-5.772-16.867-8.333-26.717-5.949c-6.287,1.521-13.332,5.587-17.378,10.721
			c-5.333,6.766-9.868,14.295-9.617,23.306c0.276,9.925,5.066,18.923,13.817,23.935c9.938,5.691,22.914,2.398,28.732-7.533
			c0.739-1.262,1.302-2.584,1.738-3.936c10.06,9.259,21.424,16.695,34.357,20.357c-0.918,7.585-0.966,15.242,0.42,22.959
			c2.938,16.357,13.811,17.953,30.746,21.02c6.886,1.246,36.105,0.465,47.605-0.5c18.376-1.541,36.096-4,36.051-26.614
			c-0.022-11.495-1.866-23.558-3.25-34.985c-1.42-11.725-3.657-24.763-11.009-34.424
			C550.373-110.43,548.741-112.218,546.856-113.824z"/>
		<path fill="#6D6D6D" d="M76.549-318.357c1.115-0.005,2.509-10.576,3.453-19.104c-2.364-0.103-4.75-0.164-7.136-0.148
			C73.625-327.805,74.808-318.351,76.549-318.357z"/>
		<path fill="#6D6D6D" d="M57.725-320.357c1.646-0.004,2.249-8.378,2.452-16.232c-2.675,0.463-5.299,1.112-7.841,1.997
			C53.583-326.813,55.337-320.352,57.725-320.357z"/>
		<path fill="#6D6D6D" d="M94.725-323.357c1.372-0.004,2.998-5.825,4.385-12.312c-3.245-0.601-6.516-0.971-9.66-1.222
			C90.689-329.428,92.409-323.353,94.725-323.357z"/>
		<path fill="#A0A0A0" d="M126.633-281.664c0.275-0.801,0.531-1.616,0.764-2.448L125.641-284L126.633-281.664z"/>
		<path fill="#A0A0A0" d="M51.9-328.965c-0.68-1.604-1.378-3.159-2.079-4.66c0.829-0.35,1.667-0.673,2.515-0.968
			c1.247,7.779,3.001,14.241,5.389,14.235c1.646-0.004,2.249-8.378,2.452-16.232c4.149-0.717,8.42-0.992,12.689-1.021
			c0.758,9.806,1.941,19.26,3.683,19.253c1.115-0.005,2.509-10.576,3.453-19.104c2.46,0.106,4.896,0.257,7.285,0.414
			c0.712,0.047,1.435,0.1,2.164,0.157c1.239,7.463,2.958,13.538,5.274,13.533c1.372-0.004,2.998-5.825,4.385-12.312
			c2.124,0.394,4.232,0.894,6.288,1.517c-0.735,1.662-1.488,3.396-2.248,5.188l20.119,18.323l-15.706,35.747
			c-8.275-3.317-17.595-2.528-24.899,3.774c-8.375-6.067-22.496-8.125-33.27-3.18l-17.75-36.214L51.9-328.965z M88.082-299.164
			c-0.122,1.933,2.878,1.921,3,0c0.469-7.426,13.993-6.76,14.568,0c0.163,1.913,3.164,1.929,3,0
			C107.744-309.81,88.799-310.505,88.082-299.164z M77.204-285.441c0,0,6.649-4.429,5.56-5.268c-1.09-0.838-4.277-1.573-5.56-1.4
			c0,0-2.834,0.239-5.124,1.273C69.791-289.803,77.204-285.441,77.204-285.441z M47.082-298.164c-0.133,1.932,2.868,1.919,3,0
			c0.496-7.193,13.102-8.961,13.568-1c0.113,1.922,3.113,1.934,3,0C65.956-311.011,47.842-309.202,47.082-298.164z"/>
		<path fill="#A0A0A0" d="M31.413-283.061c0.083,0.211,0.165,0.423,0.25,0.632L31.918-283L31.413-283.061z"/>
		<path fill="#A0A0A0" d="M114-340.667c3.685,4.966,4.377,10.608,4.464,13.542c1.12,1.024,2.165,2.145,3.103,3.397
			c1.794,2.397,3.237,5.076,4.388,7.917l0.171,0.104c-1.706-10.755-5.362-28.636-11.785-37.292c0,0-4.068,7.825-8.941,18.848
			c1.612,0.488,3.189,1.059,4.712,1.722C112.323-337.345,114-340.667,114-340.667z"/>
		<path fill="#86898A" d="M123.269-310.642l2.359-5.369l0.326,0.199c-1.15-2.841-2.594-5.52-4.388-7.917
			c-0.938-1.252-1.982-2.373-3.103-3.397c0.037,1.249-0.034,2.016-0.034,2.016l-10.512-2.309c0.761-1.793,1.502-3.478,2.193-5.012
			c-1.523-0.664-3.1-1.234-4.712-1.722c-0.735,1.662-1.488,3.396-2.248,5.188L123.269-310.642z"/>
		<path fill="#A0A0A0" d="M29.931-314.011l-1.7,0.934c1.016-10.208,3.844-30.517,10.823-39.923c0,0,5.489,8.076,10.768,19.375
			c0.701,1.501,1.399,3.056,2.079,4.66l-20.256,18.449L29.931-314.011z M34.965-325.109l11.512-4.309
			c-3.198-7.538-7.082-13.249-7.082-13.249C34.141-335.586,34.965-325.109,34.965-325.109z"/>
		<path fill="#F9BAB7" d="M46.477-329.418c-3.198-7.538-7.082-13.249-7.082-13.249c-5.254,7.081-4.43,17.558-4.43,17.558
			L46.477-329.418z"/>
		<path fill="#545354" d="M47.082-298.164c-0.133,1.932,2.868,1.919,3,0c0.496-7.193,13.102-8.961,13.568-1
			c0.113,1.922,3.113,1.934,3,0C65.956-311.011,47.842-309.202,47.082-298.164z"/>
		<path fill="#545354" d="M91.082-299.164c0.469-7.426,13.993-6.76,14.568,0c0.163,1.913,3.164,1.929,3,0
			c-0.907-10.646-19.852-11.341-20.568,0C87.96-297.231,90.96-297.243,91.082-299.164z"/>
		<path fill="#F9BAB7" d="M110.111-332.43c-0.69,1.534-1.432,3.219-2.193,5.012l10.512,2.309c0,0,0.071-0.768,0.034-2.016
			c-0.086-2.934-0.779-8.575-4.464-13.542C114-340.667,112.323-337.345,110.111-332.43z"/>
		<path fill="#F9BAB7" d="M77.204-285.441c0,0,6.649-4.429,5.56-5.268c-1.09-0.838-4.277-1.573-5.56-1.4
			c0,0-2.834,0.239-5.124,1.273C69.791-289.803,77.204-285.441,77.204-285.441z"/>
		<path fill="#A0A0A0" d="M46.162-272.566c1.031-0.664,2.12-1.224,3.232-1.735l-17.75-36.214l-1.713-3.495l-1.7,0.934l-11.149,6.127
			l9.849,6.437l-12.849,15.378l17.331,2.074L31.918-283l-0.255,0.571L23-263l14.472-1.412
			C39.822-267.525,42.639-270.298,46.162-272.566z"/>
		<path fill="#A0A0A0" d="M125.628-316.011l-2.359,5.369l-15.706,35.747c2.961,1.187,5.79,2.895,8.343,5.071
			c1.79,1.525,3.353,3.213,4.748,5.012L134.559-263l-7.926-18.664L125.641-284l1.756-0.112l16.08-1.023l-12.849-16.378l9.849-5.437
			l-14.352-8.758l-0.171-0.104L125.628-316.011z"/>
		<path fill="#A0A0A0" d="M133.949-213.234c0.369,3.346,0.654,6.689,0.864,10.015c8.498-2.197,16.758-5.222,24.675-9.108
			c9.001-4.419,31.089-19.004,33.822-21.444c4.214-3.763,7.615-8.309,10.943-12.852c0.991-1.353,5.909-7.499,6.557-8.148
			c6.817-7.048,7.021-18.434,0-25.455c-6.848-6.849-18.636-7.052-25.456,0c-3.926,4.059-7.257,8.662-10.572,13.223
			c-0.574,0.789-1.153,1.575-1.734,2.359c-0.118,0.146-0.256,0.315-0.421,0.52c-1.498,1.741-8.045,21.063-28.602,32.265
			c-4.469,2.435-8.083,3.877-11.75,4.916c0.027,0.217,0.053,0.431,0.081,0.647C132.898-221.991,133.466-217.617,133.949-213.234z"/>
		<path fill="#6D6D6D" d="M102.082-246.5c0.007,2.725,22.931,6.451,28.491,7.315c-0.828-4.768-1.958-9.549-3.641-14.068
			C115.487-252.065,102.074-249.941,102.082-246.5z"/>
		<path fill="#6D6D6D" d="M58.866-249c-0.006-2.459-18.669-5.732-26.399-6.982c-1.378,2.947-2.547,6.054-3.616,9.244l-0.856,3.486
			C40.657-243.725,58.876-245.085,58.866-249z"/>
		<path fill="#6D6D6D" d="M57.866-225c-0.006-2.54-23.95-5.95-32.612-7.101l-3.194,13C34.188-219.394,57.877-220.535,57.866-225z"/>
		<path fill="#6D6D6D" d="M48.866-200c-0.007-2.814-24.479-6.7-28.988-7.392c-0.345,4.813-0.293,9.652,0.29,14.518
			C32.197-193.962,48.875-196.163,48.866-200z"/>
		<path fill="#A0A0A0" d="M102.082-195.5c-0.01-4.125,20.22-5.414,32.862-5.817c-0.033-0.632-0.091-1.269-0.131-1.902
			c-0.209-3.325-0.495-6.669-0.864-10.015c-7.271-0.946-33.86-4.589-33.867-7.266c-0.01-4.063,19.603-5.374,32.273-5.798
			c-0.027-0.217-0.053-0.431-0.081-0.647c-0.133-1.055-0.266-2.109-0.392-3.154c-0.359-2.969-0.778-6.023-1.31-9.085
			c-5.56-0.864-28.484-4.591-28.491-7.315c-0.008-3.441,13.405-5.565,24.85-6.753c-1.548-4.157-3.579-8.08-6.278-11.56
			c-1.396-1.799-2.958-3.486-4.748-5.012c-2.553-2.176-5.382-3.884-8.343-5.071c-8.275-3.317-17.595-2.528-24.899,3.774
			c-8.375-6.067-22.496-8.125-33.27-3.18c-1.113,0.511-2.202,1.071-3.232,1.735c-3.523,2.269-6.34,5.042-8.69,8.155
			c-1.959,2.595-3.6,5.423-5.005,8.429c7.73,1.25,26.393,4.523,26.399,6.982c0.01,3.915-18.209,5.275-30.872,5.748l-2.74,11.151
			c8.662,1.15,32.605,4.561,32.612,7.101c0.011,4.465-23.678,5.606-35.806,5.899l-1.75,7.122c-0.185,1.525-0.323,3.055-0.433,4.587
			c4.509,0.691,28.981,4.577,28.988,7.392c0.009,3.837-16.669,6.038-28.698,7.126c0.154,1.283,0.332,2.567,0.563,3.854
			c2.938,16.357,13.811,17.953,30.746,21.02c6.886,1.246,36.105,0.465,47.605-0.5c15.005-1.259,29.568-3.135,34.383-16.091
			C125.857-186.554,102.089-192.896,102.082-195.5z"/>
		<path fill="#6D6D6D" d="M100.082-220.5c0.007,2.677,26.597,6.319,33.867,7.266c-0.483-4.383-1.051-8.757-1.594-13.063
			C119.685-225.874,100.072-224.563,100.082-220.5z"/>
		<path fill="#6D6D6D" d="M102.082-195.5c0.007,2.604,23.775,8.946,31.383,10.909c1.082-2.911,1.676-6.375,1.668-10.523
			c-0.004-2.051-0.082-4.123-0.189-6.203C122.302-200.914,102.072-199.625,102.082-195.5z"/>
		<path fill="#6D6D6D" d="M416.549-631.357c1.115-0.005,2.509-10.576,3.453-19.104c-2.364-0.103-4.75-0.164-7.136-0.148
			C413.625-640.805,414.808-631.351,416.549-631.357z"/>
		<path fill="#6D6D6D" d="M397.725-633.357c1.646-0.004,2.249-8.378,2.452-16.232c-2.675,0.463-5.299,1.112-7.841,1.997
			C393.583-639.813,395.337-633.352,397.725-633.357z"/>
		<path fill="#6D6D6D" d="M434.725-636.357c1.372-0.004,2.998-5.825,4.385-12.312c-3.245-0.601-6.516-0.971-9.66-1.222
			C430.689-642.428,432.409-636.353,434.725-636.357z"/>
		<path fill="#A0A0A0" d="M371.413-596.061c0.083,0.211,0.165,0.423,0.25,0.632l0.255-0.571L371.413-596.061z"/>
		<path fill="#A0A0A0" d="M466.633-594.664c0.275-0.801,0.531-1.616,0.764-2.448L465.641-597L466.633-594.664z"/>
		<path fill="#A0A0A0" d="M391.9-641.965c-0.68-1.604-1.378-3.159-2.079-4.66c0.829-0.35,1.667-0.673,2.515-0.968
			c1.247,7.779,3.001,14.241,5.389,14.235c1.646-0.004,2.249-8.378,2.452-16.232c4.149-0.717,8.42-0.992,12.689-1.021
			c0.758,9.806,1.941,19.26,3.683,19.253c1.115-0.005,2.509-10.576,3.453-19.104c2.46,0.106,4.896,0.257,7.285,0.414
			c0.712,0.047,1.435,0.1,2.164,0.157c1.239,7.463,2.958,13.538,5.274,13.533c1.372-0.004,2.998-5.825,4.385-12.312
			c2.124,0.394,4.232,0.894,6.288,1.517c-0.735,1.662-1.488,3.396-2.248,5.188l20.119,18.323l-15.706,35.747
			c-8.275-3.317-17.595-2.528-24.899,3.774c-8.375-6.067-22.496-8.125-33.27-3.18l-17.75-36.214L391.9-641.965z M428.082-612.164
			c-0.122,1.933,2.878,1.921,3,0c0.469-7.426,13.993-6.76,14.568,0c0.163,1.913,3.164,1.929,3,0
			C447.744-622.81,428.799-623.505,428.082-612.164z M417.204-598.441c0,0,6.649-4.429,5.56-5.268c-1.09-0.838-4.277-1.573-5.56-1.4
			c0,0-2.834,0.239-5.124,1.273C409.791-602.803,417.204-598.441,417.204-598.441z M387.082-611.164c-0.133,1.932,2.868,1.919,3,0
			c0.496-7.193,13.102-8.961,13.568-1c0.113,1.922,3.113,1.934,3,0C405.956-624.011,387.842-622.202,387.082-611.164z"/>
		<path fill="#A0A0A0" d="M454-653.667c3.685,4.966,4.377,10.608,4.464,13.542c1.12,1.024,2.165,2.145,3.103,3.397
			c1.794,2.397,3.237,5.076,4.388,7.917l0.171,0.104c-1.706-10.755-5.362-28.636-11.785-37.292c0,0-4.068,7.825-8.941,18.848
			c1.612,0.488,3.189,1.059,4.712,1.722C452.323-650.345,454-653.667,454-653.667z"/>
		<path fill="#86898A" d="M463.269-623.642l2.359-5.369l0.326,0.199c-1.15-2.841-2.594-5.52-4.388-7.917
			c-0.938-1.252-1.982-2.373-3.103-3.397c0.037,1.249-0.034,2.016-0.034,2.016l-10.512-2.309c0.761-1.793,1.502-3.478,2.193-5.012
			c-1.523-0.664-3.1-1.234-4.712-1.722c-0.735,1.662-1.488,3.396-2.248,5.188L463.269-623.642z"/>
		<path fill="#A0A0A0" d="M369.931-627.011l-1.7,0.934c1.016-10.208,3.844-30.517,10.823-39.923c0,0,5.489,8.076,10.768,19.375
			c0.701,1.501,1.399,3.056,2.079,4.66l-20.256,18.449L369.931-627.011z M374.965-638.109l11.512-4.309
			c-3.198-7.538-7.082-13.249-7.082-13.249C374.141-648.586,374.965-638.109,374.965-638.109z"/>
		<path fill="#F9BAB7" d="M386.477-642.418c-3.198-7.538-7.082-13.249-7.082-13.249c-5.254,7.081-4.43,17.558-4.43,17.558
			L386.477-642.418z"/>
		<path fill="#545354" d="M387.082-611.164c-0.133,1.932,2.868,1.919,3,0c0.496-7.193,13.102-8.961,13.568-1
			c0.113,1.922,3.113,1.934,3,0C405.956-624.011,387.842-622.202,387.082-611.164z"/>
		<path fill="#545354" d="M431.082-612.164c0.469-7.426,13.993-6.76,14.568,0c0.163,1.913,3.164,1.929,3,0
			c-0.907-10.646-19.852-11.341-20.568,0C427.96-610.231,430.96-610.243,431.082-612.164z"/>
		<path fill="#F9BAB7" d="M450.111-645.43c-0.69,1.534-1.432,3.219-2.193,5.012l10.512,2.309c0,0,0.071-0.768,0.034-2.016
			c-0.086-2.934-0.779-8.575-4.464-13.542C454-653.667,452.323-650.345,450.111-645.43z"/>
		<path fill="#F9BAB7" d="M417.204-598.441c0,0,6.649-4.429,5.56-5.268c-1.09-0.838-4.277-1.573-5.56-1.4
			c0,0-2.834,0.239-5.124,1.273C409.791-602.803,417.204-598.441,417.204-598.441z"/>
		<path fill="#A0A0A0" d="M371.413-596.061l0.505,0.061l-0.255,0.571L363-576l14.472-1.412c2.351-3.113,5.167-5.886,8.69-8.155
			c1.031-0.664,2.12-1.224,3.232-1.735l-17.75-36.214l-1.713-3.495l-1.7,0.934l-11.149,6.127l9.849,6.437l-12.849,15.378
			L371.413-596.061z"/>
		<path fill="#A0A0A0" d="M465.628-629.011l-2.359,5.369l-15.706,35.747c2.961,1.187,5.79,2.895,8.343,5.071
			c1.79,1.525,3.353,3.213,4.748,5.012L474.559-576l-7.926-18.664L465.641-597l1.756-0.112l16.08-1.023l-12.849-16.378l9.849-5.437
			l-14.352-8.758l-0.171-0.104L465.628-629.011z"/>
		<path fill="#A0A0A0" d="M473.949-526.234c0.369,3.346,0.654,6.689,0.864,10.015c8.498-2.197,16.758-5.222,24.675-9.108
			c9.001-4.419,31.089-19.004,33.822-21.444c4.214-3.763,7.615-8.309,10.943-12.852c0.991-1.353,5.909-7.499,6.557-8.148
			c6.817-7.048,7.021-18.434,0-25.455c-6.848-6.849-18.636-7.052-25.456,0c-3.926,4.059-7.257,8.662-10.572,13.223
			c-0.574,0.789-1.153,1.575-1.734,2.359c-0.118,0.146-0.256,0.315-0.421,0.52c-1.498,1.741-8.045,21.063-28.602,32.265
			c-4.469,2.435-8.083,3.877-11.75,4.916c0.027,0.217,0.053,0.431,0.081,0.647C472.898-534.991,473.466-530.617,473.949-526.234z"/>
		<path fill="#6D6D6D" d="M442.082-559.5c0.007,2.725,22.931,6.451,28.491,7.315c-0.828-4.768-1.958-9.549-3.641-14.068
			C455.487-565.065,442.074-562.941,442.082-559.5z"/>
		<path fill="#6D6D6D" d="M398.866-562c-0.006-2.459-18.669-5.732-26.399-6.982c-1.378,2.947-2.547,6.054-3.616,9.244l-0.856,3.486
			C380.657-556.725,398.876-558.085,398.866-562z"/>
		<path fill="#6D6D6D" d="M397.866-538c-0.006-2.54-23.95-5.95-32.612-7.101l-3.194,13C374.188-532.394,397.877-533.535,397.866-538
			z"/>
		<path fill="#6D6D6D" d="M388.866-513c-0.007-2.814-24.479-6.7-28.988-7.392c-0.345,4.813-0.293,9.652,0.29,14.518
			C372.197-506.962,388.875-509.163,388.866-513z"/>
		<path fill="#A0A0A0" d="M455.906-582.824c-2.553-2.176-5.382-3.884-8.343-5.071c-8.275-3.317-17.595-2.528-24.899,3.774
			c-8.375-6.067-22.496-8.125-33.27-3.18c-1.113,0.511-2.202,1.071-3.232,1.735c-3.523,2.269-6.34,5.042-8.69,8.155
			c-1.959,2.595-3.6,5.423-5.005,8.429c7.73,1.25,26.393,4.523,26.399,6.982c0.01,3.915-18.209,5.275-30.872,5.748l-2.74,11.151
			c8.662,1.15,32.605,4.561,32.612,7.101c0.011,4.465-23.678,5.606-35.806,5.899l-1.75,7.122c-0.185,1.525-0.323,3.055-0.433,4.587
			c4.509,0.691,28.981,4.577,28.988,7.392c0.009,3.837-16.669,6.038-28.698,7.126c0.154,1.283,0.332,2.567,0.563,3.854
			c2.938,16.357,13.811,17.953,30.746,21.02c6.886,1.246,36.105,0.465,47.605-0.5c15.005-1.259,29.568-3.135,34.383-16.091
			c-7.608-1.963-31.376-8.305-31.383-10.909c-0.01-4.125,20.22-5.414,32.862-5.817c-0.033-0.632-0.091-1.269-0.131-1.902
			c-0.209-3.326-0.495-6.668-0.864-10.015c-7.271-0.946-33.86-4.589-33.867-7.266c-0.01-4.063,19.603-5.374,32.273-5.798
			c-0.027-0.217-0.053-0.431-0.081-0.647c-0.133-1.055-0.266-2.109-0.392-3.154c-0.359-2.969-0.778-6.023-1.31-9.085
			c-5.56-0.864-28.484-4.591-28.491-7.315c-0.008-3.441,13.405-5.565,24.85-6.753c-1.548-4.157-3.579-8.08-6.278-11.56
			C459.259-579.611,457.696-581.299,455.906-582.824z"/>
		<path fill="#6D6D6D" d="M440.082-533.5c0.007,2.677,26.597,6.319,33.867,7.266c-0.483-4.383-1.051-8.757-1.594-13.063
			C459.685-538.874,440.072-537.563,440.082-533.5z"/>
		<path fill="#6D6D6D" d="M442.082-508.5c0.007,2.604,23.775,8.946,31.383,10.909c1.082-2.911,1.676-6.375,1.668-10.523
			c-0.004-2.051-0.082-4.123-0.189-6.203C462.302-513.914,442.072-512.625,442.082-508.5z"/>
		<path fill="#88A098" d="M192.479-650.152c-1.207-0.522-2.422-1.055-3.652-1.594c1.276-0.963,2.52-1.869,3.748-2.75
			C181.597-659.722,175-664.915,175-664.915v31.953C180.916-639.703,186.657-645.374,192.479-650.152z"/>
		<path fill="#97C4B7" d="M192.479-650.152c17.922,7.756,33.77,13.063,64.205-3.047c-7.559-6.781-4.919-12.63-1.262-16.4
			c-17.97-4.138-33.792-5.738-62.848,15.104c-1.228,0.881-2.471,1.787-3.748,2.75C190.056-651.208,191.272-650.675,192.479-650.152z
			"/>
		<path fill="#88A098" d="M255.421-669.599c10.773,2.481,17.362,5.868,17.362,5.868c-1.15,0.908-2.301,1.772-3.452,2.61l-5.19-0.835
			l1.823,3.19c-3.102,2.084-6.199,3.936-9.281,5.566C249.125-659.98,251.764-665.829,255.421-669.599z M256.301-664.471
			c0,1.389,1.125,2.515,2.515,2.515s2.515-1.125,2.515-2.515s-1.126-2.515-2.515-2.515S256.301-665.86,256.301-664.471z"/>
		<path fill="#97C4B7" d="M258.816-661.956c1.389,0,2.515-1.125,2.515-2.515s-1.126-2.515-2.515-2.515s-2.515,1.125-2.515,2.515
			S257.427-661.956,258.816-661.956z"/>
		<path fill="#88A098" d="M736.493-433.624c9.995,6.922,15.672,13.106,15.672,13.106l5.132-31.538
			c-6.921,5.702-13.5,10.378-20.012,14.16c1.106,0.709,2.221,1.43,3.349,2.159C739.219-434.991,737.847-434.296,736.493-433.624z"/>
		<path fill="#97C4B7" d="M672.035-428.811c17.073,6.971,32.434,11.091,64.458-4.813c1.354-0.672,2.726-1.367,4.141-2.112
			c-1.128-0.729-2.242-1.45-3.349-2.159c-16.444-10.534-31.233-18.316-63.861-7.304
			C679.795-437.293,676.251-431.943,672.035-428.811z"/>
		<path fill="#88A098" d="M659.667-439.412l4.989,1.657l-1.287-3.441c3.396-1.559,6.751-2.889,10.055-4.003
			c6.371,7.906,2.827,13.256-1.389,16.389c-10.234-4.179-16.193-8.58-16.193-8.58C657.123-438.102,658.397-438.771,659.667-439.412z
			 M669.104-431.936c1.372,0.224,2.664-0.707,2.887-2.078c0.224-1.371-0.707-2.662-2.079-2.886c-1.37-0.223-2.662,0.707-2.886,2.078
			C666.804-433.45,667.734-432.158,669.104-431.936z"/>
		<path fill="#97C4B7" d="M669.104-431.936c1.372,0.224,2.664-0.707,2.887-2.078c0.224-1.371-0.707-2.662-2.079-2.886
			c-1.37-0.223-2.662,0.707-2.886,2.078C666.804-433.45,667.734-432.158,669.104-431.936z"/>
		<path fill="#88A098" d="M166.277-125.305c-1.55,0.611-3.119,1.221-4.706,1.839c0.284-2.004,0.588-3.928,0.901-5.815
			c-14.541,5.139-25.104,6.372-25.104,6.372l28.606,28.688C165.251-105.569,165.329-115.802,166.277-125.305z"/>
		<path fill="#97C4B7" d="M166.277-125.305c23.036-9.082,42.015-18.507,54.918-60.219c-12.858,0.679-15.724-6.936-15.816-13.596
			c-19.84,12.375-35.479,25.104-42.906,69.838c-0.313,1.888-0.618,3.812-0.901,5.815
			C163.158-124.084,164.727-124.693,166.277-125.305z"/>
		<path fill="#88A098" d="M205.379-199.119c11.896-7.416,20.843-10.275,20.843-10.275c-0.22,1.846-0.48,3.651-0.763,5.434
			l-5.409,3.898l4.494,1.232c-0.919,4.647-2.042,9.083-3.35,13.307C208.337-184.845,205.471-192.459,205.379-199.119z
			 M210.762-195.302c1.243,1.247,3.261,1.251,4.508,0.006c1.247-1.243,1.25-3.262,0.006-4.51c-1.243-1.245-3.261-1.248-4.509-0.005
			C209.52-198.567,209.517-196.549,210.762-195.302z"/>
		<path fill="#97C4B7" d="M215.27-195.296c1.247-1.243,1.25-3.262,0.006-4.51c-1.243-1.245-3.261-1.248-4.509-0.005
			c-1.247,1.243-1.25,3.262-0.005,4.509C212.005-194.055,214.023-194.051,215.27-195.296z"/>
		<path fill="#88A098" d="M401.452-301.331c1.337,0.383,2.617,0.771,3.872,1.164c-2.117-10.362-1.965-17.662-1.965-17.662
			l-22.195,16.73c7.781,0.58,14.726,1.599,21.094,3.14C401.988-299.07,401.722-300.194,401.452-301.331z"/>
		<path fill="#97C4B7" d="M402.257-297.959c3.997,16.511,8.609,30.297,35.735,43.003c0.753-8.801,6.198-10.03,10.732-9.463
			c-6.536-14.649-13.708-26.478-43.4-35.748c-1.255-0.392-2.535-0.781-3.872-1.164C401.722-300.194,401.988-299.07,402.257-297.959z
			"/>
		<path fill="#88A098" d="M448.724-264.419c3.916,8.783,5.015,15.133,5.015,15.133c-1.233-0.324-2.436-0.671-3.621-1.031
			l-2.138-4.043l-1.262,2.937c-3.071-1.063-5.979-2.245-8.726-3.532C438.745-263.757,444.19-264.986,448.724-264.419z
			 M445.622-261.123c-0.965,0.728-1.158,2.098-0.43,3.063c0.727,0.965,2.099,1.157,3.064,0.43c0.963-0.727,1.156-2.098,0.429-3.063
			C447.958-261.658,446.587-261.85,445.622-261.123z"/>
		<path fill="#97C4B7" d="M445.622-261.123c-0.965,0.728-1.158,2.098-0.43,3.063c0.727,0.965,2.099,1.157,3.064,0.43
			c0.963-0.727,1.156-2.098,0.429-3.063C447.958-261.658,446.587-261.85,445.622-261.123z"/>
		<path fill="#88A098" d="M615.152-90.856c2.801-10.198,6.24-16.64,6.24-16.64l-27.363,4.874c6.676,4.038,12.408,8.09,17.389,12.347
			c0.263-1.113,0.534-2.235,0.807-3.371C613.245-92.7,614.21-91.774,615.152-90.856z"/>
		<path fill="#97C4B7" d="M615.152-90.856c-0.942-0.918-1.907-1.844-2.927-2.79c-0.273,1.136-0.544,2.258-0.807,3.371
			c-3.907,16.532-6.033,30.913,12.407,54.519c4.654-7.509,10.066-6.14,13.853-3.583C638.479-55.36,637.436-69.155,615.152-90.856z"
			/>
		<path fill="#88A098" d="M637.679-39.34c-0.482,9.605-2.377,15.765-2.377,15.765c-0.953-0.846-1.868-1.7-2.762-2.558l-0.077-4.574
			l-2.455,2.049c-2.258-2.337-4.316-4.707-6.182-7.099C628.48-43.266,633.892-41.896,637.679-39.34z M631.65-35.267
			c0.211,1.189,1.348,1.982,2.538,1.771c1.188-0.214,1.981-1.349,1.769-2.538c-0.211-1.189-1.347-1.98-2.537-1.77
			C632.229-37.591,631.438-36.456,631.65-35.267z"/>
		<path fill="#97C4B7" d="M631.65-35.267c0.211,1.189,1.348,1.982,2.538,1.771c1.188-0.214,1.981-1.349,1.769-2.538
			c-0.211-1.189-1.347-1.98-2.537-1.77C632.229-37.591,631.438-36.456,631.65-35.267z"/>
		<path fill="#E5E1D7" d="M45.982-385.174c9.156-1.698,17.832-3.605,19.619-3.791c0,0,7.325-1.308,13.341,2.354
			s15.91,0.001,14.079-7.324s-7.717-29.908-27.42-30.083c-14.649-0.13-22.496,16.218-23.02,21.188S36.827-383.476,45.982-385.174z"
			/>
		<path fill="#E5E1D7" d="M57.145-428.366c4.778-1.245,7.95-4.946,5.474-14.453c-1.755-6.737-7.052-11.189-11.829-9.944
			c-2.01,0.523-7.228,7.714-5.474,14.453C47.792-428.807,52.367-427.122,57.145-428.366z"/>
		<path fill="#E5E1D7" d="M88.127-438.311c1.754-6.739-3.464-13.93-5.474-14.453c-4.777-1.245-10.074,3.208-11.829,9.944
			c-2.476,9.506,0.696,13.208,5.474,14.453C81.077-427.122,85.652-428.807,88.127-438.311z"/>
		<path fill="#E5E1D7" d="M103.519-419.228c3.114-6.479,1.538-11.383-2.25-13.202c-3.855-1.854-9.102,1.051-11.716,6.488
			c-3.688,7.672-1.607,11.349,2.25,13.203C95.66-410.886,99.832-411.557,103.519-419.228z"/>
		<path fill="#E5E1D7" d="M31.533-432.43c-3.788,1.819-5.364,6.723-2.25,13.202c3.688,7.671,7.859,8.342,11.716,6.489
			c3.856-1.854,5.937-5.531,2.25-13.203C40.635-431.379,35.389-434.283,31.533-432.43z"/>
		<path fill="#E5E1D7" d="M367.982-371.174c9.156-1.698,17.832-3.605,19.619-3.791c0,0,7.325-1.308,13.341,2.354
			s15.91,0.001,14.079-7.324s-7.717-29.908-27.42-30.083c-14.649-0.13-22.496,16.218-23.02,21.188S358.827-369.476,367.982-371.174z
			"/>
		<path fill="#E5E1D7" d="M379.145-414.366c4.778-1.245,7.95-4.946,5.474-14.453c-1.755-6.737-7.052-11.189-11.829-9.944
			c-2.01,0.523-7.228,7.714-5.474,14.453C369.792-414.807,374.367-413.122,379.145-414.366z"/>
		<path fill="#E5E1D7" d="M404.653-438.763c-4.777-1.245-10.074,3.208-11.829,9.944c-2.476,9.506,0.696,13.208,5.474,14.453
			c4.778,1.244,9.354-0.44,11.829-9.944C411.881-431.049,406.663-438.24,404.653-438.763z"/>
		<path fill="#E5E1D7" d="M413.803-398.738c3.856,1.853,8.028,1.182,11.716-6.489c3.114-6.479,1.538-11.383-2.25-13.202
			c-3.855-1.854-9.102,1.051-11.716,6.488C407.866-404.27,409.947-400.593,413.803-398.738z"/>
		<path fill="#E5E1D7" d="M363-398.738c3.856-1.854,5.937-5.531,2.25-13.203c-2.614-5.438-7.86-8.342-11.716-6.488
			c-3.788,1.819-5.364,6.723-2.25,13.202C354.971-397.557,359.143-396.886,363-398.738z"/>
		<path fill="#E5E1D7" d="M699.982-325.174c9.156-1.698,17.832-3.605,19.619-3.791c0,0,7.324-1.308,13.342,2.354
			c6.016,3.662,15.91,0.001,14.078-7.324c-1.83-7.325-7.717-29.908-27.42-30.083c-14.648-0.13-22.496,16.218-23.02,21.188
			S690.826-323.476,699.982-325.174z"/>
		<path fill="#E5E1D7" d="M704.79-392.763c-2.01,0.523-7.228,7.714-5.474,14.453c2.475,9.504,7.051,11.188,11.828,9.944
			c4.779-1.245,7.95-4.946,5.475-14.453C714.864-389.556,709.567-394.008,704.79-392.763z"/>
		<path fill="#E5E1D7" d="M724.824-382.819c-2.476,9.506,0.695,13.208,5.475,14.453c4.777,1.244,9.354-0.44,11.828-9.944
			c1.754-6.739-3.464-13.93-5.474-14.453C731.876-394.008,726.579-389.556,724.824-382.819z"/>
		<path fill="#E5E1D7" d="M757.52-359.228c3.113-6.479,1.537-11.383-2.25-13.202c-3.855-1.854-9.102,1.051-11.716,6.488
			c-3.688,7.672-1.606,11.349,2.249,13.203C749.66-350.886,753.832-351.557,757.52-359.228z"/>
		<path fill="#E5E1D7" d="M695-352.738c3.855-1.854,5.937-5.531,2.249-13.203c-2.614-5.438-7.86-8.342-11.716-6.488
			c-3.787,1.819-5.363,6.723-2.25,13.202C686.971-351.557,691.143-350.886,695-352.738z"/>
		<path fill="#A0A0A0" d="M269.282-586.804c-0.409,3.883-4.496,15.118,2.656,13.791s13.929-2.816,15.325-2.961
			c0,0,5.722-1.021,10.421,1.839c4.7,2.861,12.428,0.001,10.998-5.721c-1.431-5.722-6.028-23.362-21.419-23.499
			C275.82-603.456,269.69-590.687,269.282-586.804z"/>
		<path fill="#A0A0A0" d="M271.417-614.52c1.934,7.424,5.508,8.74,9.24,7.768c3.732-0.973,6.21-3.864,4.276-11.29
			c-1.371-5.262-5.508-8.74-9.24-7.768C274.123-625.4,270.047-619.783,271.417-614.52z"/>
		<path fill="#A0A0A0" d="M295.619-606.751c3.732,0.972,7.306-0.344,9.24-7.768c1.37-5.264-2.706-10.881-4.276-11.29
			c-3.731-0.972-7.869,2.506-9.24,7.768C289.409-610.615,291.886-607.724,295.619-606.751z"/>
		<path fill="#A0A0A0" d="M307.73-594.544c3.012,1.447,6.271,0.923,9.151-5.069c2.433-5.061,1.202-8.891-1.757-10.313
			c-3.012-1.448-7.11,0.821-9.152,5.068C303.092-598.865,304.718-595.993,307.73-594.544z"/>
		<path fill="#A0A0A0" d="M268.045-594.544c3.012-1.449,4.638-4.321,1.757-10.313c-2.042-4.248-6.14-6.516-9.152-5.068
			c-2.958,1.421-4.19,5.251-1.757,10.313C261.774-593.621,265.033-593.097,268.045-594.544z"/>
		<path fill="#A0A0A0" d="M527.938-220.013c7.152-1.327,13.929-2.816,15.325-2.961c0,0,5.722-1.021,10.421,1.839
			c4.7,2.861,12.428,0.001,10.998-5.721c-1.431-5.723-6.028-23.363-21.419-23.499c-11.442-0.102-17.572,12.668-17.981,16.551
			C524.873-229.921,520.786-218.686,527.938-220.013z"/>
		<path fill="#A0A0A0" d="M536.657-253.751c3.732-0.973,6.21-3.864,4.276-11.29c-1.371-5.262-5.508-8.74-9.24-7.768
			c-1.57,0.409-5.646,6.026-4.276,11.29C529.351-254.096,532.925-252.78,536.657-253.751z"/>
		<path fill="#A0A0A0" d="M556.583-272.809c-3.731-0.972-7.869,2.506-9.24,7.768c-1.934,7.426,0.543,10.317,4.276,11.29
			c3.732,0.972,7.306-0.344,9.24-7.768C562.229-266.783,558.152-272.4,556.583-272.809z"/>
		<path fill="#A0A0A0" d="M571.125-256.926c-3.012-1.448-7.11,0.821-9.152,5.068c-2.88,5.992-1.255,8.865,1.757,10.313
			c3.012,1.446,6.271,0.923,9.151-5.069C575.314-251.674,574.083-255.504,571.125-256.926z"/>
		<path fill="#A0A0A0" d="M516.651-256.926c-2.958,1.421-4.19,5.251-1.757,10.313c2.88,5.992,6.139,6.516,9.151,5.069
			c3.012-1.448,4.638-4.321,1.757-10.313C523.761-256.105,519.663-258.374,516.651-256.926z"/>
		<path fill="#A0A0A0" d="M533.282-637.804c-0.409,3.883-4.496,15.118,2.656,13.791s13.929-2.816,15.325-2.961
			c0,0,5.722-1.021,10.421,1.839c4.7,2.861,12.428,0.001,10.998-5.721c-1.431-5.722-6.028-23.362-21.419-23.499
			C539.82-654.456,533.69-641.687,533.282-637.804z"/>
		<path fill="#A0A0A0" d="M544.657-657.751c3.732-0.973,6.21-3.864,4.276-11.29c-1.371-5.262-5.508-8.74-9.24-7.768
			c-1.57,0.409-5.646,6.026-4.276,11.29C537.351-658.096,540.925-656.78,544.657-657.751z"/>
		<path fill="#A0A0A0" d="M559.619-657.751c3.732,0.972,7.306-0.344,9.24-7.768c1.37-5.264-2.706-10.881-4.276-11.29
			c-3.731-0.972-7.869,2.506-9.24,7.768C553.409-661.615,555.886-658.724,559.619-657.751z"/>
		<path fill="#A0A0A0" d="M571.73-645.544c3.012,1.447,6.271,0.923,9.151-5.069c2.433-5.061,1.202-8.891-1.757-10.313
			c-3.012-1.448-7.11,0.821-9.152,5.068C567.092-649.865,568.718-646.993,571.73-645.544z"/>
		<path fill="#A0A0A0" d="M532.045-645.544c3.012-1.449,4.638-4.321,1.757-10.313c-2.042-4.248-6.14-6.516-9.152-5.068
			c-2.958,1.421-4.19,5.251-1.757,10.313C525.774-644.621,529.033-644.097,532.045-645.544z"/>
		<path fill="#A0A0A0" d="M215.263-46.354c-11.442-0.102-17.572,12.668-17.981,16.551c-0.409,3.883-4.496,15.118,2.656,13.791
			s13.929-2.816,15.325-2.961c0,0,5.722-1.021,10.421,1.839c4.7,2.861,12.428,0.001,10.998-5.721
			C235.251-28.578,230.654-46.219,215.263-46.354z"/>
		<path fill="#A0A0A0" d="M203.693-68.809c-1.57,0.408-5.646,6.025-4.276,11.289c1.934,7.424,5.508,8.74,9.24,7.768
			s6.21-3.863,4.276-11.289C211.563-66.303,207.425-69.781,203.693-68.809z"/>
		<path fill="#A0A0A0" d="M219.343-61.041c-1.934,7.426,0.543,10.316,4.276,11.289s7.306-0.344,9.24-7.768
			c1.37-5.264-2.706-10.881-4.276-11.289C224.851-69.781,220.713-66.303,219.343-61.041z"/>
		<path fill="#A0A0A0" d="M243.125-52.926c-3.012-1.447-7.11,0.82-9.152,5.068c-2.88,5.992-1.255,8.865,1.757,10.313
			c3.012,1.446,6.271,0.923,9.151-5.069C247.314-47.674,246.083-51.504,243.125-52.926z"/>
		<path fill="#A0A0A0" d="M197.803-47.857c-2.042-4.248-6.14-6.516-9.152-5.068c-2.958,1.422-4.19,5.252-1.757,10.313
			c2.88,5.992,6.139,6.516,9.151,5.069C199.058-38.992,200.683-41.865,197.803-47.857z"/>
		<path fill="#A0A0A0" d="M718.801-62.298c-10.544-4.447-21.07,5.028-22.927,8.464c-1.855,3.436-9.909,12.271-2.791,13.765
			c7.12,1.494,13.954,2.695,15.3,3.093c0,0,5.68,1.231,8.937,5.665c3.258,4.435,11.494,4.73,12.348-1.105
			C730.522-38.253,732.982-56.316,718.801-62.298z"/>
		<path fill="#A0A0A0" d="M722.234-76.767c0.734-5.387-1.769-10.178-5.59-10.699c-1.607-0.22-7.514,3.424-8.25,8.813
			c-1.035,7.602,1.768,10.178,5.59,10.698C717.807-67.433,721.197-69.163,722.234-76.767z"/>
		<path fill="#A0A0A0" d="M739.32-65.929c3.271-4.346,1.638-11.092,0.342-12.066c-3.08-2.319-8.231-0.677-11.5,3.668
			c-4.615,6.131-3.423,9.747-0.342,12.066C730.902-59.941,734.708-59.799,739.32-65.929z"/>
		<path fill="#A0A0A0" d="M736.675-56.569c-4.944,4.445-4.533,7.722-2.298,10.207c2.234,2.483,5.447,3.239,10.391-1.206
			c4.176-3.755,4.494-7.765,2.3-10.206C744.833-60.258,740.18-59.721,736.675-56.569z"/>
		<path fill="#A0A0A0" d="M697.676-61.462c3.337-0.193,5.934-2.232,5.55-8.869c-0.272-4.706-3.2-8.362-6.536-8.17
			c-3.275,0.189-5.872,3.263-5.547,8.869C691.525-62.995,694.34-61.271,697.676-61.462z"/>
		<path fill="#88A098" d="M310.724-68.732c-5.265-10.964-7.128-19.143-7.128-19.143l-20.063,24.868
			c8.836-1.532,16.867-2.34,24.397-2.404c-0.611-1.164-1.223-2.343-1.842-3.534C307.683-68.893,309.217-68.818,310.724-68.732z"/>
		<path fill="#97C4B7" d="M369.128-41.024c-11.389-14.505-22.699-25.686-58.404-27.708c-1.506-0.086-3.041-0.16-4.636-0.213
			c0.62,1.191,1.231,2.37,1.842,3.534c9.079,17.291,18.081,31.37,51.883,37.942C358.188-37.492,363.915-40.387,369.128-41.024z"/>
		<path fill="#88A098" d="M369.128-41.024c6.827,8.695,9.829,15.47,9.829,15.47c-1.465-0.017-2.904-0.066-4.325-0.137l-3.515-3.909
			l-0.585,3.628c-3.723-0.326-7.295-0.83-10.719-1.496C358.188-37.492,363.915-40.387,369.128-41.024z M370.129-36.859
			c-1.081-0.872-2.664-0.703-3.536,0.379c-0.872,1.081-0.703,2.664,0.378,3.536s2.664,0.703,3.536-0.378
			C371.38-34.404,371.21-35.986,370.129-36.859z"/>
		<path fill="#97C4B7" d="M366.593-36.48c-0.872,1.081-0.703,2.664,0.378,3.536s2.664,0.703,3.536-0.378
			c0.873-1.082,0.703-2.664-0.378-3.537C369.048-37.731,367.465-37.563,366.593-36.48z"/>
	</g>
</pattern>
<rect x="693" fill="#141119" width="707" height="980"/>
<rect fill="url(#New_Pattern_Swatch_1)" width="1400" height="980"/>
</svg>
