<?xml version="1.0" encoding="utf-8"?>
<!-- Generator: Adobe Illustrator 19.0.0, SVG Export Plug-In . SVG Version: 6.00 Build 0)  -->
<svg version="1.0" id="Layer_1" xmlns="http://www.w3.org/2000/svg" xmlns:xlink="http://www.w3.org/1999/xlink" x="0px" y="0px"
	 width="1400px" height="980px" viewBox="0 0 1400 980" enable-background="new 0 0 1400 980" xml:space="preserve">
<rect id="XMLID_143_" fill="#A7A9AC" width="1400" height="980"/>
<g id="XMLID_142_">
	<defs>
		<rect id="XMLID_141_" width="1400" height="980"/>
	</defs>
	<clipPath id="XMLID_14_">
		<use xlink:href="#XMLID_141_"  overflow="visible"/>
	</clipPath>
	<g id="XMLID_1_" clip-path="url(#XMLID_14_)">
		<path id="XMLID_2_" fill="#FFFFFF" d="M1035,582l-36-84c-1.6-3.8-4.8-6.7-8.8-7.9c-3.9-1.2-8.2-0.7-11.7,1.5
			c-10.8,6.8-30.2,21-44.3,42.4l-13.7-7.9c15.1-31.1,9.7-59.8,9.4-61.1c-0.8-3.9-4.5-6.4-8.4-5.7c-3.9,0.8-6.4,4.5-5.7,8.4
			c0.1,0.3,4.5,24.8-7.8,51.1l-25.2-14.4c11.4-24.6,7.2-47,7-48c-0.8-3.9-4.5-6.4-8.4-5.7c-3.9,0.8-6.5,4.5-5.7,8.4
			c0,0.2,3.3,18.3-5.4,38.1L848.8,485c8.5-19.4,5.2-36.9,5.1-37.7c-0.8-3.9-4.6-6.4-8.5-5.7c-3.9,0.8-6.4,4.6-5.7,8.5
			c0,0.1,2.4,13-3.5,27.7l-23.6-13.6c6.3-15.3,3.7-28.8,3.6-29.5c-0.8-3.9-4.5-6.4-8.4-5.7c-3.9,0.7-6.5,4.5-5.7,8.4
			c0,0.1,1.6,9-2.1,19.5l-15-8.6c-0.1-0.7-0.3-1.3-0.6-2l-21.8-55.4c-1.7-4.2-5.7-6.9-10.2-6.8c-4.5,0.1-8.4,3-9.8,7.3l-6.7,20
			c-3.2,9.5-8.1,18.1-14.7,25.6L707.2,453c-3,3.4-3.5,8.2-1.3,12.2c1,1.8,2.4,3.2,4,4.1c2,1.2,4.5,1.6,6.9,1.3l58.9-9.2
			c0.7-0.1,1.3-0.3,2-0.5l14.9,8.6c-7,7.9-16,11.8-16.1,11.8c-3.7,1.6-5.4,5.8-3.8,9.4c0.6,1.5,1.7,2.7,3,3.4
			c1.9,1.1,4.2,1.3,6.4,0.4c0.6-0.3,13.7-5.9,23.1-17.8l23.6,13.5c-9.3,11.5-22.3,17.2-22.5,17.2c-3.7,1.6-5.4,5.8-3.8,9.4
			c0.6,1.5,1.7,2.7,3,3.4c1.9,1.1,4.2,1.3,6.4,0.4c0.8-0.3,17.8-7.7,29.5-23.3l21.4,12.3c-12.1,16-30.3,24-30.5,24.1
			c-3.7,1.6-5.4,5.8-3.8,9.4c0.6,1.5,1.7,2.7,3,3.4c1.9,1.1,4.2,1.3,6.4,0.4c1-0.4,23-9.9,37.5-30.1l25.2,14.4
			c-15.6,21.9-40.3,32.7-40.6,32.8c-3.7,1.6-5.4,5.8-3.8,9.4c0.6,1.5,1.7,2.7,3,3.4c1.9,1.1,4.2,1.3,6.4,0.4
			c1.3-0.5,29.6-12.8,47.5-38.8l13.7,7.9c-12.6,24.9-14.6,48.1-14.6,60.2c0,4,1.7,7.9,4.8,10.5c0.7,0.6,1.5,1.2,2.3,1.7
			c2.6,1.5,5.7,2.1,8.8,1.8l91-11.4c6.2-0.8,11.5-4.3,14.6-9.7C1037,594.1,1037.4,587.7,1035,582z M971.8,552.7
			c-3.2-1.8-4.3-5.9-2.5-9.1c1.8-3.2,5.9-4.3,9.1-2.5c3.2,1.8,4.3,5.9,2.5,9.1S975,554.5,971.8,552.7z"/>
		<path id="XMLID_120_" fill="#FFFFFF" d="M581,860.2l-90.4,13.6c-4.1,0.6-7.7,3-9.9,6.5c-2.2,3.5-2.7,7.8-1.5,11.7
			c3.9,12.2,12.7,34.5,29.8,53.6L498,956.8c-26.3-22.5-55.4-24.5-56.7-24.6c-4-0.2-7.4,2.8-7.6,6.7c-0.3,4,2.8,7.4,6.7,7.7
			c0.3,0,25.1,1.9,47.5,20.5l-20.3,20.7c-20.9-17.2-43.7-18.8-44.7-18.9c-4-0.2-7.4,2.8-7.6,6.7c-0.3,4,2.8,7.4,6.7,7.7
			c0.2,0,18.5,1.4,35.5,14.9l-17.3,17.6c-16.6-13.1-34.4-14.4-35.2-14.4c-4-0.2-7.4,2.8-7.6,6.8c-0.2,4,2.8,7.4,6.8,7.6
			c0.1,0,13.2,0.9,25.9,10.4l-19.1,19.4c-13.2-9.9-27-10.9-27.6-10.9c-4-0.2-7.3,2.8-7.6,6.7c-0.3,4,2.7,7.4,6.7,7.7
			c0.1,0,9.2,0.8,18.3,6.9l-12.1,12.3c-0.7,0-1.4,0-2,0l-59.2,7c-4.5,0.5-8.1,3.7-9.1,8.2c-1,4.4,0.7,8.9,4.5,11.4l17.7,11.6
			c8.4,5.5,15.5,12.4,21.1,20.7l11.9,17.5c2.5,3.8,7,5.5,11.4,4.3c2-0.5,3.7-1.5,5-2.9c1.7-1.7,2.7-3.9,3-6.4l6-59.3
			c0.1-0.7,0.1-1.4,0-2l12.1-12.3c5.8,8.7,7.4,18.4,7.4,18.5c0.6,3.9,4.2,6.7,8.2,6.1c1.6-0.2,3-1,4.1-2.1c1.5-1.6,2.3-3.8,2-6.1
			c-0.1-0.7-2.3-14.7-11.4-26.9l19.1-19.4c8.7,11.9,11,25.9,11,26.1c0.6,3.9,4.2,6.7,8.2,6.1c1.6-0.2,3-1,4.1-2.1
			c1.5-1.6,2.3-3.8,2-6.1c-0.1-0.9-2.9-19.1-15-34.4l17.3-17.6c12.5,15.8,15.5,35.4,15.6,35.6c0.6,3.9,4.2,6.7,8.2,6.1
			c1.6-0.2,3-1,4.1-2.1c1.5-1.6,2.3-3.8,2-6.1c-0.2-1.1-3.8-24.8-19.7-43.9l20.3-20.7c17.2,20.6,21.4,47.3,21.4,47.5
			c0.6,3.9,4.2,6.7,8.2,6.1c1.6-0.2,3-1,4.1-2.1c1.5-1.6,2.3-3.8,2-6.1c-0.2-1.4-4.9-31.9-25.6-55.8l11.1-11.3
			c20.9,18.5,42.8,26.3,54.6,29.3c3.9,1,8.1,0.3,11.4-1.9c0.8-0.5,1.5-1.1,2.2-1.8c2.1-2.2,3.5-5,3.9-8l12-90.9
			c0.8-6.2-1.3-12.2-5.7-16.6C593.2,861.2,587.1,859.3,581,860.2z M536.7,913.9c-2.6,2.6-6.8,2.7-9.5,0.1c-2.6-2.6-2.7-6.8-0.1-9.5
			c2.6-2.6,6.8-2.7,9.5-0.1C539.2,907,539.2,911.3,536.7,913.9z"/>
		<path id="XMLID_135_" fill="#FFFFFF" d="M1267.4,246.9l73.5-54.3c3.3-2.5,5.4-6.2,5.7-10.4c0.3-4.1-1.2-8.1-4.2-11
			c-9.1-9-27.4-24.5-51.4-33.4l4.5-15.2c33.8,7.5,60.5-4.3,61.6-4.9c3.6-1.6,5.2-5.9,3.6-9.5c-1.6-3.6-5.9-5.2-9.5-3.6
			c-0.2,0.1-23.1,10.1-51.6,4.1l8.3-27.8c26.5,5.4,47.4-3.8,48.4-4.2c3.6-1.6,5.2-5.9,3.6-9.5c-1.6-3.6-5.9-5.2-9.5-3.6
			c-0.2,0.1-17,7.4-38.3,3.5l7-23.7c20.8,3.8,37.1-3.4,37.8-3.7c3.6-1.6,5.2-5.9,3.6-9.5c-1.6-3.6-5.9-5.2-9.5-3.6
			c-0.1,0.1-12.1,5.4-27.7,2.9l7.8-26.1c16.3,2.6,28.9-3,29.5-3.3c3.6-1.6,5.2-5.9,3.6-9.5c-1.6-3.6-5.9-5.2-9.5-3.6
			c-0.1,0-8.4,3.6-19.4,2.4l4.9-16.6c0.6-0.3,1.2-0.6,1.8-1l49-33.9c3.7-2.6,5.4-7.1,4.2-11.5c-1.2-4.4-4.8-7.5-9.3-7.9l-21-1.9
			c-10-0.9-19.5-3.7-28.3-8.4l-18.7-9.9c-4-2.1-8.8-1.5-12.1,1.5c-1.5,1.4-2.5,3-3.1,4.9c-0.7,2.3-0.6,4.7,0.4,7.1l22.5,55.2
			c0.3,0.6,0.6,1.2,1,1.8l-4.9,16.5c-9.2-5-15.2-12.8-15.2-12.9c-2.4-3.2-6.9-3.9-10.1-1.5c-1.3,1-2.2,2.3-2.6,3.8
			c-0.6,2.1-0.3,4.4,1.1,6.3c0.4,0.6,8.9,11.9,22.7,18.4l-7.8,26.1c-13.3-6.4-21.8-17.8-21.9-17.9c-2.4-3.2-6.9-3.9-10.1-1.5
			c-1.3,1-2.2,2.3-2.6,3.8c-0.6,2.1-0.3,4.4,1.1,6.3c0.5,0.7,11.6,15.5,29.4,23.3l-7,23.6c-18.4-8.1-30.3-24-30.4-24.1
			c-2.4-3.2-6.9-3.9-10.1-1.5c-1.3,1-2.2,2.3-2.6,3.8c-0.6,2.1-0.3,4.4,1.1,6.3c0.7,0.9,15,20.1,37.9,29.5l-8.3,27.8
			c-24.9-10.1-41-31.7-41.2-32c-2.4-3.2-6.9-3.9-10.1-1.6c-1.3,1-2.2,2.3-2.6,3.8c-0.6,2.1-0.3,4.4,1.1,6.3
			c0.8,1.1,19.2,25.9,48.7,37.3l-4.5,15.2c-27.2-6.5-50.1-3.1-61.9-0.3c-3.9,0.9-7.3,3.5-9.2,7.1c-0.5,0.8-0.8,1.7-1.1,2.6
			c-0.9,2.9-0.8,6.1,0.3,8.9l32,86c2.2,5.8,6.9,10.2,12.8,12C1256.1,251.7,1262.4,250.6,1267.4,246.9z M1281.4,178.7
			c1.1-3.5,4.8-5.6,8.3-4.5s5.6,4.8,4.5,8.3c-1.1,3.5-4.8,5.6-8.3,4.5C1282.4,186,1280.3,182.2,1281.4,178.7z"/>
		<path id="XMLID_123_" fill="#FFFFFF" d="M774.6-64L683.3-68c-4.1-0.2-8.1,1.5-10.9,4.5c-2.8,3-4.2,7.1-3.7,11.2
			c1.5,12.7,5.9,36.3,19,58.3l-13,9c-21.5-27.1-49.7-34.6-51-34.9c-3.8-1-7.8,1.3-8.8,5.2c-1,3.8,1.3,7.8,5.1,8.8
			c0.3,0.1,24.3,6.7,42.7,29.2l-23.9,16.4c-17.2-20.9-39.3-26.8-40.3-27.1c-3.8-1-7.8,1.3-8.8,5.2c-1,3.8,1.3,7.8,5.1,8.8
			c0.2,0.1,17.9,4.9,32,21.3l-20.3,14c-13.8-16.1-31-20.7-31.8-20.9c-3.9-1-7.8,1.3-8.8,5.2c-1,3.9,1.3,7.8,5.2,8.8
			c0.1,0,12.8,3.4,23.4,15.1l-22.4,15.4c-11.1-12.3-24.4-15.8-25-16c-3.8-1-7.7,1.3-8.8,5.1c-1,3.8,1.3,7.8,5.1,8.8
			c0.1,0,8.8,2.5,16.6,10.3l-14.3,9.8c-0.7-0.2-1.3-0.3-2-0.4l-59.4-4.4c-4.5-0.3-8.6,2.1-10.5,6.3c-1.9,4.1-1,8.9,2.3,12l15.2,14.7
			c7.2,7,12.8,15.2,16.7,24.3l8.3,19.4c1.8,4.2,5.9,6.7,10.4,6.4c2-0.1,3.9-0.8,5.5-1.8c1.9-1.3,3.4-3.3,4.1-5.7l17.2-57
			c0.2-0.7,0.3-1.3,0.4-2l14.2-9.7c4.1,9.7,3.7,19.5,3.7,19.6c-0.2,4,2.9,7.4,6.9,7.5c1.6,0.1,3.2-0.4,4.4-1.3
			c1.8-1.2,3-3.3,3.1-5.6c0-0.7,0.6-14.9-6.1-28.6L602.7,82c6.3,13.3,5.8,27.6,5.8,27.7c-0.2,4,2.9,7.4,6.9,7.5
			c1.6,0.1,3.2-0.4,4.4-1.3c1.8-1.2,3-3.3,3.1-5.6c0-0.9,0.8-19.4-8.2-36.6l20.3-14c9.2,17.8,8.5,37.7,8.5,37.9
			c-0.2,4,2.9,7.4,6.9,7.5c1.6,0.1,3.2-0.4,4.4-1.3c1.8-1.2,3-3.3,3.1-5.6c0.1-1.1,1-25-10.9-46.8l23.9-16.4
			c13,23.5,12,50.5,12,50.8c-0.2,4,2.9,7.4,6.9,7.5c1.6,0.1,3.2-0.4,4.4-1.3c1.8-1.2,3-3.3,3.1-5.6c0.1-1.4,1.3-32.2-14.4-59.6
			l13.1-9c17,22.1,37,33.9,48,39.2c3.6,1.7,7.8,1.8,11.6,0.3c0.9-0.4,1.7-0.8,2.5-1.4c2.5-1.7,4.4-4.2,5.4-7.1l29.1-87
			c2-5.9,1.1-12.3-2.4-17.4C786.4-60.7,780.8-63.8,774.6-64z M720.8-19.8c-3,2.1-7.2,1.3-9.3-1.7s-1.3-7.2,1.7-9.3
			c3-2.1,7.2-1.3,9.3,1.7S723.9-21.9,720.8-19.8z"/>
		<path id="XMLID_129_" fill="#FFFFFF" d="M85.6,361.8l90.4-13c4.1-0.6,7.7-2.9,9.9-6.4c2.2-3.5,2.8-7.8,1.6-11.7
			c-3.8-12.2-12.5-34.6-29.5-53.8l11.2-11.2c26.2,22.6,55.3,24.8,56.6,24.9c4,0.3,7.4-2.7,7.7-6.7c0.3-4-2.7-7.4-6.7-7.7
			c-0.3,0-25.1-2.1-47.4-20.8l20.5-20.6c20.8,17.4,43.6,19.1,44.6,19.2c4,0.3,7.4-2.7,7.7-6.7c0.3-4-2.7-7.4-6.7-7.7
			c-0.2,0-18.5-1.5-35.4-15.1l17.4-17.5c16.5,13.2,34.3,14.6,35.1,14.6c4,0.3,7.4-2.7,7.7-6.7c0.3-4-2.7-7.4-6.7-7.7
			c-0.1,0-13.2-1-25.8-10.6l19.2-19.3c13.2,10,26.9,11,27.5,11.1c4,0.3,7.4-2.7,7.7-6.7c0.3-4-2.7-7.4-6.6-7.7
			c-0.1,0-9.1-0.8-18.3-7.1l12.2-12.3c0.7,0,1.4,0.1,2,0l59.2-6.7c4.5-0.5,8.1-3.7,9.2-8.1c1.1-4.4-0.7-8.9-4.5-11.4L327.7,117
			c-8.3-5.5-15.4-12.5-20.9-20.8L295,78.6c-2.5-3.8-7-5.5-11.4-4.4c-2,0.5-3.7,1.5-5,2.8c-1.7,1.7-2.7,3.9-3,6.4l-6.4,59.2
			c-0.1,0.7-0.1,1.4,0,2L257,156.9c-5.8-8.8-7.3-18.5-7.3-18.6c-0.6-3.9-4.2-6.7-8.1-6.1c-1.6,0.2-3,1-4.1,2.1
			c-1.5,1.5-2.4,3.8-2,6.1c0.1,0.7,2.2,14.7,11.2,27l-19.2,19.3c-8.7-11.9-10.8-26-10.8-26.2c-0.6-3.9-4.2-6.7-8.1-6.1
			c-1.6,0.2-3,1-4.1,2.1c-1.5,1.5-2.4,3.8-2,6.1c0.1,0.9,2.8,19.2,14.8,34.5l-17.4,17.5c-12.4-15.8-15.3-35.5-15.4-35.7
			c-0.6-3.9-4.2-6.7-8.1-6.1c-1.6,0.2-3,1-4.1,2.1c-1.5,1.5-2.4,3.8-2,6.1c0.2,1.1,3.6,24.8,19.4,44l-20.5,20.6
			c-17.1-20.7-21.1-47.4-21.1-47.7c-0.6-3.9-4.2-6.7-8.1-6.1c-1.6,0.2-3,1-4.1,2.1c-1.5,1.5-2.4,3.8-2,6.1
			c0.2,1.4,4.7,31.9,25.2,55.9l-11.2,11.2c-20.8-18.6-42.7-26.5-54.4-29.6c-3.9-1-8-0.4-11.4,1.9c-0.8,0.5-1.5,1.1-2.2,1.8
			c-2.1,2.2-3.6,5-4,8l-12.6,90.9c-0.9,6.2,1.2,12.2,5.6,16.6C73.3,360.7,79.4,362.7,85.6,361.8z M130.2,308.4
			c2.6-2.6,6.8-2.6,9.5,0c2.6,2.6,2.6,6.8,0,9.5c-2.6,2.6-6.8,2.6-9.5,0C127.6,315.3,127.6,311,130.2,308.4z"/>
		<path id="XMLID_138_" fill="#FFFFFF" d="M1083.4,1143.4l90.4-13c4.1-0.6,7.7-2.9,9.9-6.4c2.2-3.5,2.8-7.8,1.6-11.7
			c-3.8-12.2-12.5-34.6-29.5-53.8l11.2-11.2c26.2,22.6,55.3,24.8,56.6,24.9c4,0.3,7.4-2.7,7.7-6.7c0.3-4-2.7-7.4-6.7-7.7
			c-0.3,0-25.1-2.1-47.4-20.8l20.5-20.6c20.8,17.4,43.6,19.1,44.6,19.2c4,0.3,7.4-2.7,7.7-6.7c0.3-4-2.7-7.4-6.7-7.7
			c-0.2,0-18.5-1.5-35.4-15.1l17.4-17.5c16.5,13.2,34.3,14.6,35.1,14.6c4,0.3,7.4-2.7,7.7-6.7c0.3-4-2.7-7.4-6.7-7.7
			c-0.1,0-13.2-1-25.8-10.6l19.2-19.3c13.2,10,26.9,11,27.5,11.1c4,0.3,7.4-2.7,7.7-6.7c0.3-4-2.7-7.4-6.6-7.7
			c-0.1,0-9.1-0.8-18.3-7.1l12.2-12.3c0.7,0,1.4,0.1,2,0l59.2-6.7c4.5-0.5,8.1-3.7,9.2-8.1c1.1-4.4-0.7-8.9-4.5-11.4l-17.6-11.7
			c-8.3-5.5-15.4-12.5-20.9-20.8l-11.8-17.6c-2.5-3.8-7-5.5-11.4-4.4c-2,0.5-3.7,1.5-5,2.8c-1.7,1.7-2.7,3.9-3,6.4l-6.4,59.2
			c-0.1,0.7-0.1,1.4,0,2l-12.1,12.2c-5.8-8.8-7.3-18.5-7.3-18.6c-0.6-3.9-4.2-6.7-8.1-6.1c-1.6,0.2-3,1-4.1,2.1
			c-1.5,1.5-2.4,3.8-2,6.1c0.1,0.7,2.2,14.7,11.2,27l-19.2,19.3c-8.7-11.9-10.8-26-10.8-26.2c-0.6-3.9-4.2-6.7-8.1-6.1
			c-1.6,0.2-3,1-4.1,2.1c-1.5,1.5-2.4,3.8-2,6.1c0.1,0.9,2.8,19.2,14.8,34.5l-17.4,17.5c-12.4-15.8-15.3-35.5-15.4-35.7
			c-0.6-3.9-4.2-6.7-8.1-6.1c-1.6,0.2-3,1-4.1,2.1c-1.5,1.5-2.4,3.8-2,6.1c0.2,1.1,3.6,24.8,19.4,44l-20.5,20.6
			c-17.1-20.7-21.1-47.4-21.1-47.7c-0.6-3.9-4.2-6.7-8.1-6.1c-1.6,0.2-3,1-4.1,2.1c-1.5,1.5-2.4,3.8-2,6.1
			c0.2,1.4,4.7,31.9,25.2,55.9l-11.2,11.2c-20.8-18.6-42.7-26.5-54.4-29.6c-3.9-1-8-0.4-11.4,1.9c-0.8,0.5-1.5,1.1-2.2,1.8
			c-2.1,2.2-3.6,5-4,8l-12.6,90.9c-0.9,6.2,1.2,12.2,5.6,16.6C1071.1,1142.3,1077.2,1144.3,1083.4,1143.4z M1128,1090
			c2.6-2.6,6.8-2.6,9.5,0s2.6,6.8,0,9.5c-2.6,2.6-6.8,2.6-9.5,0C1125.4,1096.8,1125.4,1092.6,1128,1090z"/>
		<path id="XMLID_126_" fill="#FFFFFF" d="M204.2,638.5l-30.5-86.1c-1.4-3.9-4.4-7-8.2-8.5c-3.9-1.5-8.1-1.2-11.8,0.8
			c-11.3,6.1-31.5,19-47,39.4l-13.2-8.7c17.1-30.1,13.5-59.1,13.4-60.4c-0.5-3.9-4.1-6.7-8.1-6.2c-3.9,0.5-6.7,4.1-6.2,8.1
			c0,0.3,2.9,25-11.1,50.5l-24.2-16c13-23.8,10.2-46.5,10.1-47.5c-0.5-3.9-4.1-6.7-8.1-6.2c-3.9,0.5-6.7,4.1-6.2,8
			c0,0.2,2.1,18.5-7.9,37.6l-20.6-13.6c9.7-18.8,7.6-36.5,7.5-37.3c-0.5-3.9-4.1-6.7-8.1-6.2c-3.9,0.5-6.7,4.1-6.2,8.1
			c0,0.1,1.6,13.1-5.3,27.4l-22.7-15.1c7.2-14.9,5.6-28.5,5.5-29.2c-0.5-3.9-4.1-6.7-8-6.2c-3.9,0.5-6.7,4.1-6.3,8
			c0,0.1,1,9.1-3.3,19.3l-14.4-9.6c-0.1-0.7-0.2-1.3-0.4-2l-18.1-56.7c-1.4-4.3-5.2-7.2-9.7-7.4c-4.5-0.2-8.6,2.4-10.3,6.6l-8,19.6
			c-3.8,9.2-9.3,17.5-16.3,24.6l-14.9,15c-3.2,3.2-4,7.9-2.1,12.1c0.9,1.8,2.2,3.3,3.8,4.4c2,1.3,4.4,1.9,6.9,1.7l59.3-5.4
			c0.7-0.1,1.4-0.2,2-0.4l14.3,9.5c-7.5,7.4-16.7,10.7-16.8,10.8c-3.8,1.3-5.7,5.4-4.4,9.2c0.5,1.5,1.6,2.8,2.8,3.6
			c1.8,1.2,4.2,1.6,6.4,0.8c0.6-0.2,14-5,24.2-16.3l22.7,15c-10,10.8-23.4,15.7-23.5,15.7c-3.8,1.3-5.7,5.4-4.4,9.2
			c0.5,1.5,1.6,2.8,2.8,3.6c1.8,1.2,4.2,1.6,6.4,0.8c0.8-0.3,18.2-6.5,30.9-21.3l20.6,13.6c-13.1,15.2-31.8,22-32,22.1
			c-3.8,1.3-5.7,5.4-4.4,9.2c0.5,1.5,1.6,2.8,2.8,3.6c1.8,1.2,4.2,1.6,6.4,0.8c1-0.4,23.6-8.4,39.3-27.6l24.2,16
			c-17,20.8-42.3,30-42.6,30.1c-3.8,1.3-5.7,5.4-4.4,9.2c0.5,1.5,1.6,2.8,2.8,3.6c1.8,1.2,4.2,1.6,6.4,0.8
			c1.3-0.5,30.4-10.8,49.9-35.7l13.2,8.8c-14.2,24.1-17.6,47-18.4,59.1c-0.3,4,1.2,8,4.1,10.8c0.7,0.7,1.4,1.3,2.2,1.8
			c2.5,1.7,5.6,2.5,8.6,2.3l91.6-5.5c6.2-0.4,11.8-3.6,15.2-8.8C205.5,650.8,206.3,644.4,204.2,638.5z M143.1,605.2
			c-3.1-2-3.9-6.2-1.9-9.3c2-3.1,6.2-3.9,9.3-1.9c3.1,2,3.9,6.2,1.9,9.3C150.3,606.4,146.1,607.2,143.1,605.2z"/>
		<path id="XMLID_117_" fill="#FFFFFF" d="M1427,708.5l-73-55c-3.3-2.5-7.5-3.4-11.5-2.5c-4,0.9-7.5,3.5-9.4,7.1
			c-6,11.3-15.7,33.2-17.3,58.8H1300c-2.4-34.5-21.4-56.7-22.2-57.7c-2.6-3-7.1-3.3-10.1-0.7c-3,2.6-3.3,7.1-0.7,10.2
			c0.2,0.2,16.3,19.3,18.7,48.3h-29c-2.4-27-17.2-44.4-17.8-45.1c-2.6-3-7.1-3.3-10.1-0.7c-3,2.6-3.3,7.1-0.8,10.2
			c0.1,0.2,12,14.2,14.3,35.7h-24.7c-2.3-21.1-13.8-34.6-14.4-35.2c-2.6-3-7.2-3.3-10.2-0.7c-3,2.6-3.3,7.2-0.7,10.2
			c0.1,0.1,8.6,10,10.7,25.8h-27.2c-2.2-16.4-11.1-26.9-11.6-27.3c-2.6-3-7.1-3.3-10.1-0.7c-3,2.6-3.3,7.1-0.8,10.1
			c0.1,0.1,5.9,7.1,7.9,17.9h-17.3c-0.4-0.5-0.9-1-1.5-1.4l-46.5-37.3c-3.5-2.8-8.3-3.1-12.2-0.8c-3.9,2.4-5.8,6.8-4.9,11.2
			l4.1,20.7c2,9.8,2,19.7,0,29.5l-4.1,20.7c-0.9,4.4,1,8.8,4.9,11.2c1.7,1.1,3.6,1.6,5.6,1.6c2.4,0,4.7-0.8,6.7-2.4l46.5-37.3
			c0.5-0.4,1-0.9,1.5-1.4h17.2c-2.1,10.3-8,18.2-8,18.3c-2.4,3.2-1.8,7.7,1.4,10.1c1.3,1,2.8,1.5,4.4,1.5c2.2,0,4.3-1,5.7-2.9
			c0.4-0.5,8.9-11.9,11.2-27h27.2c-2.3,14.5-10.8,26-10.9,26.1c-2.4,3.2-1.8,7.7,1.4,10.1c1.3,1,2.8,1.5,4.4,1.5
			c2.2,0,4.3-1,5.7-2.9c0.5-0.7,11.6-15.5,14-34.8h24.7c-2.5,19.9-14.3,35.9-14.5,36.1c-2.4,3.2-1.8,7.7,1.4,10.1
			c1.3,1,2.8,1.5,4.4,1.5c2.2,0,4.3-1,5.7-2.9c0.7-0.9,15-20.1,17.5-44.8h29c-2.6,26.7-18.7,48.4-18.9,48.6
			c-2.4,3.2-1.8,7.7,1.4,10.1c1.3,1,2.8,1.5,4.4,1.5c2.2,0,4.3-1,5.7-2.9c0.8-1.1,19.3-25.8,21.9-57.3h15.8
			c1.5,27.9,11.3,49,17.3,59.5c2,3.5,5.4,6,9.4,6.8c0.9,0.2,1.9,0.3,2.8,0.3c3,0,6-1,8.5-2.8l73.3-55.2c5-3.8,7.8-9.5,7.8-15.7
			C1434.9,718,1432,712.2,1427,708.5z M1357.7,714.5c-3.7,0-6.7-3-6.7-6.7s3-6.7,6.7-6.7c3.7,0,6.7,3,6.7,6.7
			S1361.4,714.5,1357.7,714.5z"/>
		<path id="XMLID_132_" fill="#FFFFFF" d="M689.8,607l-87.7-25.5c-4-1.2-8.2-0.5-11.7,1.8c-3.5,2.3-5.7,5.9-6.2,10
			c-1.6,12.7-2.9,36.6,4.6,61.1L574,660c-14.5-31.4-40.1-45.5-41.2-46.1c-3.5-1.9-7.9-0.6-9.7,2.9c-1.9,3.5-0.6,7.9,2.9,9.8
			c0.2,0.1,22,12.3,34.6,38.5l-27.1,10.3c-11.8-24.4-31.8-35.4-32.7-35.9c-3.5-1.9-7.8-0.6-9.7,2.9c-1.9,3.5-0.6,7.9,2.9,9.8
			c0.2,0.1,16.2,9,26,28.3l-23.1,8.7c-9.6-18.9-25.2-27.4-25.9-27.8c-3.5-1.9-7.9-0.6-9.8,2.9c-1.9,3.5-0.6,7.9,2.9,9.8
			c0.1,0.1,11.6,6.3,19.2,20.3l-25.5,9.7c-7.9-14.5-19.9-21.2-20.5-21.5c-3.5-1.9-7.8-0.6-9.7,2.9s-0.6,7.9,2.9,9.8
			c0.1,0.1,8,4.5,13.7,14l-16.2,6.1c-0.6-0.3-1.2-0.6-1.9-0.8l-56.7-18.4c-4.3-1.4-8.9,0-11.7,3.6c-2.8,3.6-3,8.4-0.6,12.2
			l11.2,17.9c5.3,8.5,8.8,17.8,10.5,27.6l3.5,20.8c0.7,4.5,4.1,7.9,8.6,8.7c2,0.4,4,0.2,5.8-0.5c2.2-0.8,4.1-2.4,5.4-4.6l30.3-51.3
			c0.4-0.6,0.6-1.2,0.9-1.9l16.1-6.1c1.6,10.4-1,19.8-1,19.9c-1.1,3.8,1.1,7.8,4.9,9c1.6,0.5,3.2,0.4,4.6-0.2c2-0.8,3.7-2.5,4.4-4.7
			c0.2-0.7,4.1-14.3,0.9-29.2l25.4-9.6c3,14.4-0.9,28.2-1,28.3c-1.1,3.8,1.1,7.8,4.9,9c1.6,0.5,3.2,0.4,4.6-0.2
			c2-0.8,3.7-2.5,4.4-4.7c0.2-0.8,5.4-18.6,0.7-37.5l23.1-8.7c4.7,19.5-0.7,38.6-0.8,38.8c-1.1,3.8,1.1,7.8,4.9,9
			c1.6,0.5,3.2,0.4,4.6-0.2c2-0.8,3.7-2.5,4.4-4.7c0.3-1.1,6.9-24.1,0.5-48.1l27.1-10.3c7,25.9-0.4,51.9-0.4,52.2
			c-1.1,3.8,1.1,7.8,4.9,9c1.6,0.5,3.2,0.4,4.6-0.2c2-0.8,3.7-2.5,4.4-4.7c0.4-1.3,8.9-31,0.2-61.4l14.8-5.6
			c11.3,25.6,27.9,41.8,37.3,49.5c3.1,2.6,7.2,3.6,11.2,3c0.9-0.2,1.9-0.4,2.7-0.7c2.8-1.1,5.3-3.1,6.9-5.7l49-77.5
			c3.3-5.3,4-11.6,1.8-17.5C700.5,613.1,695.8,608.8,689.8,607z M627.1,637.2c-3.5,1.3-7.3-0.4-8.6-3.9s0.4-7.3,3.9-8.6
			c3.5-1.3,7.3,0.4,8.6,3.9C632.3,632.1,630.5,635.9,627.1,637.2z"/>
		<path id="XMLID_92_" fill="#231F20" d="M486.2,238.5L486.2,238.5L486.2,238.5c-13.9,17.7-24.8,35.9-32.5,54.4
			c-11.7,0.9-23.7,2.9-35.6,6c-12,3.1-23.4,7.2-34,12.1c-15.8-12.3-34.2-23-54.9-31.6l0,0l0,0c-40.6,51.7-55.6,108.6-42.3,160
			l6.7,25.9l0,0c18.5,67.8,102.8,104.5,189,82.1s142-95.5,125.2-163.8l0,0l-6.7-25.9C587.7,306.3,546.9,263.9,486.2,238.5z
			 M481.9,423.7l52.1-30.1c1.9-1.1,4.4-0.4,5.5,1.5c1.1,1.9,0.4,4.4-1.5,5.5l-52.1,30.1c-0.3,0.2-0.7,0.3-1,0.4
			c-1.7,0.4-3.5-0.3-4.5-1.9C479.4,427.2,480,424.8,481.9,423.7z M358.8,442c0-2.2,1.9-4,4.1-3.9L423,439c2.2,0,4,1.9,3.9,4.1
			c0,1.8-1.3,3.4-3,3.8c-0.3,0.1-0.7,0.1-1.1,0.1l-60.2-0.9C360.5,446,358.8,444.2,358.8,442z M434,481.1l-52.1,30.1
			c-0.3,0.2-0.7,0.3-1,0.4c-1.7,0.4-3.5-0.3-4.5-1.9c-1.1-1.9-0.4-4.4,1.5-5.5l52.1-30.1c1.9-1.1,4.4-0.4,5.5,1.5
			C436.5,477.5,435.9,480,434,481.1z M428.5,464.2l-56.1,14.6c-2.1,0.6-4.3-0.7-4.9-2.9s0.7-4.3,2.9-4.9l56.1-14.6
			c2.1-0.6,4.3,0.7,4.9,2.9S430.6,463.6,428.5,464.2z M461.9,467.7c-8.5,2.2-17.2-2.9-19.4-11.4c-2.2-8.5,2.9-17.2,11.4-19.4
			c8.5-2.2,17.2,2.9,19.4,11.4C475.5,456.9,470.4,465.5,461.9,467.7z M557.1,462.7c0,1.8-1.3,3.4-3,3.8c-0.3,0.1-0.7,0.1-1.1,0.1
			l-60.2-0.9c-2.2,0-4-1.9-3.9-4.1c0-2.2,1.9-4,4.1-3.9l60.2,0.9C555.4,458.7,557.1,460.5,557.1,462.7z M545.6,433.7l-56.1,14.6
			c-2.1,0.6-4.3-0.7-4.9-2.9s0.7-4.3,2.9-4.9l56.1-14.6c2.1-0.6,4.3,0.7,4.9,2.9S547.7,433.2,545.6,433.7z"/>
		<path id="XMLID_26_" fill="#231F20" d="M994.8,807.1L994.8,807.1L994.8,807.1c-22,4.3-42.2,11-60.2,19.9
			c-9.5-7-19.8-13.3-30.9-18.8c-11.1-5.5-22.4-9.8-33.7-13.1c-3.9-19.6-10.9-39.7-20.9-59.8l0,0h0c-64.5,12.6-113.1,45.8-136.6,93.5
			l-11.8,24l0,0c-30.3,63.4,9.5,146.3,89.4,185.7c79.9,39.4,169.9,20.4,201.7-42.2l0,0l11.8-24
			C1027.3,924.7,1024.1,865.9,994.8,807.1z M870.5,944.4l59.1,11.3c2.2,0.4,3.6,2.5,3.2,4.7c-0.4,2.2-2.5,3.6-4.7,3.2L869,952.3
			c-0.4-0.1-0.7-0.2-1-0.3c-1.6-0.8-2.5-2.5-2.2-4.3C866.3,945.4,868.3,944,870.5,944.4z M765.3,877.9c1.5-1.7,4-1.8,5.6-0.3l45,40
			c1.7,1.5,1.8,4,0.3,5.6c-1.2,1.4-3.2,1.7-4.8,0.9c-0.3-0.2-0.6-0.4-0.9-0.6l-45-40C764,882,763.8,879.5,765.3,877.9z M796.7,956.5
			l-59.1-11.3c-0.4-0.1-0.7-0.2-1-0.3c-1.6-0.8-2.5-2.5-2.2-4.3c0.4-2.2,2.5-3.6,4.7-3.2l59.1,11.3c2.2,0.4,3.6,2.5,3.2,4.7
			C801,955.5,798.9,956.9,796.7,956.5z M803.6,940.1l-52-25.6c-2-1-2.8-3.4-1.8-5.4c1-2,3.4-2.8,5.4-1.8l52,25.6
			c2,1,2.8,3.4,1.8,5.4C808,940.3,805.6,941.1,803.6,940.1z M826.6,964.7c-7.9-3.9-11.1-13.4-7.2-21.3c3.9-7.9,13.4-11.1,21.3-7.2
			c7.9,3.9,11.1,13.4,7.2,21.3C844,965.4,834.5,968.6,826.6,964.7z M901.9,1023.1c-1.2,1.4-3.2,1.7-4.8,0.9
			c-0.3-0.2-0.6-0.4-0.9-0.6l-45-40c-1.7-1.5-1.8-4-0.3-5.6c1.5-1.7,4-1.8,5.6-0.3l45,40C903.2,1018.9,903.4,1021.4,901.9,1023.1z
			 M912.1,993.6l-52-25.6c-2-1-2.8-3.4-1.8-5.4c1-2,3.4-2.8,5.4-1.8l52,25.6c2,1,2.8,3.4,1.8,5.4
			C916.5,993.8,914.1,994.6,912.1,993.6z"/>
		<path id="XMLID_84_" fill="#231F20" d="M1121.8,128.8L1121.8,128.8L1121.8,128.8c-22,4.3-42.2,11-60.2,19.9
			c-9.5-7-19.8-13.3-30.9-18.8c-11.1-5.5-22.4-9.8-33.7-13.1c-3.9-19.6-10.9-39.7-20.9-59.8l0,0l0,0
			c-64.5,12.6-113.1,45.8-136.6,93.5l-11.8,24l0,0c-30.3,63.4,9.5,146.3,89.4,185.7s169.9,20.4,201.7-42.2l0,0l11.8-24
			C1154.4,246.4,1151.1,187.6,1121.8,128.8z M997.6,266.1l59.1,11.3c2.2,0.4,3.6,2.5,3.2,4.7c-0.4,2.2-2.5,3.6-4.7,3.2L996.1,274
			c-0.4-0.1-0.7-0.2-1-0.3c-1.6-0.8-2.5-2.5-2.2-4.3C993.3,267.2,995.4,265.7,997.6,266.1z M892.4,199.6c1.5-1.7,4-1.8,5.6-0.3
			l45,40c1.7,1.5,1.8,4,0.3,5.6c-1.2,1.4-3.2,1.7-4.8,0.9c-0.3-0.2-0.6-0.4-0.9-0.6l-45-40C891,203.8,890.9,201.2,892.4,199.6z
			 M923.7,278.2l-59.1-11.3c-0.4-0.1-0.7-0.2-1-0.3c-1.6-0.8-2.5-2.5-2.2-4.3c0.4-2.2,2.5-3.6,4.7-3.2l59.1,11.3
			c2.2,0.4,3.6,2.5,3.2,4.7C928,277.2,925.9,278.6,923.7,278.2z M930.6,261.8l-52-25.6c-2-1-2.8-3.4-1.8-5.4c1-2,3.4-2.8,5.4-1.8
			l52,25.6c2,1,2.8,3.4,1.8,5.4C935,262,932.6,262.8,930.6,261.8z M953.6,286.4c-7.9-3.9-11.1-13.4-7.2-21.3
			c3.9-7.9,13.4-11.1,21.3-7.2c7.9,3.9,11.1,13.4,7.2,21.3C971,287.1,961.5,290.3,953.6,286.4z M1029,344.8
			c-1.2,1.4-3.2,1.7-4.8,0.9c-0.3-0.2-0.6-0.4-0.9-0.6l-45-40c-1.7-1.5-1.8-4-0.3-5.6c1.5-1.7,4-1.8,5.6-0.3l45,40
			C1030.3,340.6,1030.4,343.1,1029,344.8z M1039.2,315.3l-52-25.6c-2-1-2.8-3.4-1.8-5.4c1-2,3.4-2.8,5.4-1.8l52,25.6
			c2,1,2.8,3.4,1.8,5.4S1041.2,316.3,1039.2,315.3z"/>
		<path id="XMLID_101_" fill="#231F20" d="M1530.3,356.9L1530.3,356.9L1530.3,356.9c-22,4.3-42.2,11-60.2,19.9
			c-9.5-7-19.8-13.3-30.9-18.8c-11.1-5.5-22.4-9.8-33.7-13.1c-3.9-19.6-10.9-39.7-20.9-59.8v0h0c-64.5,12.6-113.1,45.8-136.6,93.5
			l-11.8,24l0,0c-30.3,63.4,9.5,146.3,89.4,185.7c79.9,39.4,169.9,20.4,201.7-42.2l0,0l11.8-24
			C1562.9,474.5,1559.7,415.7,1530.3,356.9z M1406.1,494.2l59.1,11.3c2.2,0.4,3.6,2.5,3.2,4.7c-0.4,2.2-2.5,3.6-4.7,3.2l-59.1-11.3
			c-0.4-0.1-0.7-0.2-1-0.3c-1.6-0.8-2.5-2.5-2.2-4.3C1401.8,495.2,1403.9,493.8,1406.1,494.2z M1300.9,427.7c1.5-1.7,4-1.8,5.6-0.3
			l45,40c1.7,1.5,1.8,4,0.3,5.6c-1.2,1.4-3.2,1.7-4.8,0.9c-0.3-0.2-0.6-0.4-0.9-0.6l-45-40C1299.6,431.8,1299.4,429.3,1300.9,427.7z
			 M1332.3,506.3l-59.1-11.3c-0.4-0.1-0.7-0.2-1-0.3c-1.6-0.8-2.5-2.5-2.2-4.3c0.4-2.2,2.5-3.6,4.7-3.2l59.1,11.3
			c2.2,0.4,3.6,2.5,3.2,4.7C1336.5,505.3,1334.4,506.7,1332.3,506.3z M1339.2,489.9l-52-25.6c-2-1-2.8-3.4-1.8-5.4
			c1-2,3.4-2.8,5.4-1.8l52,25.6c2,1,2.8,3.4,1.8,5.4S1341.1,490.9,1339.2,489.9z M1362.2,514.5c-7.9-3.9-11.1-13.4-7.2-21.3
			c3.9-7.9,13.4-11.1,21.3-7.2c7.9,3.9,11.1,13.4,7.2,21.3C1379.6,515.1,1370,518.4,1362.2,514.5z M1437.5,572.9
			c-1.2,1.4-3.2,1.7-4.8,0.9c-0.3-0.2-0.6-0.4-0.9-0.6l-45-40c-1.7-1.5-1.8-4-0.3-5.6c1.5-1.7,4-1.8,5.6-0.3l45,40
			C1438.8,568.7,1438.9,571.2,1437.5,572.9z M1447.7,543.4l-52-25.6c-2-1-2.8-3.4-1.8-5.4c1-2,3.4-2.8,5.4-1.8l52,25.6
			c2,1,2.8,3.4,1.8,5.4C1452.1,543.6,1449.7,544.4,1447.7,543.4z"/>
		<path id="XMLID_3_" fill="#231F20" d="M100.5,738.5L100.5,738.5L100.5,738.5c-9.1,20.5-15.1,40.9-18,60.7
			c-11.1,3.8-22.2,8.7-33,14.6s-20.8,12.8-30,20.2c-18.3-8-38.8-13.8-61-17h0l0,0c-26.5,60.2-26.9,119-1.2,165.5l12.9,23.4l0,0
			c34.8,61.1,125.6,75.7,203.5,32.6c78-43.1,113.8-127.8,80.6-189.7l0,0l-12.9-23.4C215.6,779,165.5,748.1,100.5,738.5z M142.3,919
			l43-42.1c1.6-1.5,4.1-1.5,5.7,0.1c1.5,1.6,1.5,4.1-0.1,5.7l-43,42.1c-0.3,0.3-0.6,0.5-0.9,0.6c-1.5,0.8-3.5,0.6-4.8-0.7
			C140.7,923,140.7,920.5,142.3,919z M27.6,967.3c-0.5-2.1,0.8-4.3,3-4.8L89,948.4c2.1-0.5,4.3,0.8,4.8,3c0.4,1.8-0.4,3.6-2,4.4
			c-0.3,0.2-0.6,0.3-1,0.4l-58.5,14.1C30.2,970.8,28.1,969.5,27.6,967.3z M110.1,986.5l-43,42.1c-0.3,0.3-0.6,0.5-0.9,0.6
			c-1.5,0.8-3.5,0.6-4.8-0.7c-1.5-1.6-1.5-4.1,0.1-5.7l43-42.1c1.6-1.5,4.1-1.5,5.7,0.1C111.7,982.4,111.6,984.9,110.1,986.5z
			 M100.5,971.5l-50.8,28.1c-1.9,1.1-4.4,0.4-5.4-1.6s-0.4-4.4,1.6-5.4l50.8-28.1c1.9-1.1,4.4-0.4,5.4,1.6S102.5,970.4,100.5,971.5z
			 M133.9,966.6c-7.7,4.2-17.3,1.5-21.6-6.2c-4.2-7.7-1.5-17.3,6.2-21.6s17.3-1.5,21.6,6.2C144.3,952.7,141.5,962.4,133.9,966.6z
			 M224.8,938.1c0.4,1.8-0.4,3.6-2,4.4c-0.3,0.2-0.6,0.3-1,0.4L163.3,957c-2.1,0.5-4.3-0.8-4.8-3c-0.5-2.1,0.8-4.3,3-4.8l58.5-14.1
			C222.1,934.6,224.3,936,224.8,938.1z M206.4,912.9L155.7,941c-1.9,1.1-4.4,0.4-5.4-1.6s-0.4-4.4,1.6-5.4l50.8-28.1
			c1.9-1.1,4.4-0.4,5.4,1.6S208.4,911.8,206.4,912.9z"/>
		<path id="XMLID_28_" fill="#231F20" d="M1.8-190.6L1.8-190.6L1.8-190.6c-9.1,20.5-15.1,40.9-18,60.7c-11.1,3.8-22.2,8.7-33,14.6
			s-20.8,12.8-30,20.2c-18.3-8-38.8-13.8-61-17h0l0,0c-26.5,60.2-26.9,119-1.2,165.5l12.9,23.4l0,0C-93.8,137.8-3,152.5,75,109.4
			S188.7-18.4,155.5-80.3l0,0l-12.9-23.4C116.9-150.2,66.8-181.1,1.8-190.6z M43.6-10.2l43-42.1c1.6-1.5,4.1-1.5,5.7,0.1
			c1.5,1.6,1.5,4.1-0.1,5.7l-43,42.1c-0.3,0.3-0.6,0.5-0.9,0.6c-1.5,0.8-3.5,0.6-4.8-0.7C42-6.1,42-8.7,43.6-10.2z M-71.1,38.2
			c-0.5-2.1,0.8-4.3,3-4.8l58.5-14.1c2.1-0.5,4.3,0.8,4.8,3c0.4,1.8-0.4,3.6-2,4.4c-0.3,0.2-0.6,0.3-1,0.4l-58.5,14.1
			C-68.4,41.6-70.6,40.3-71.1,38.2z M11.4,57.3l-43,42.1c-0.3,0.3-0.6,0.5-0.9,0.6c-1.5,0.8-3.5,0.6-4.8-0.7
			c-1.5-1.6-1.5-4.1,0.1-5.7l43-42.1c1.6-1.5,4.1-1.5,5.7,0.1C13,53.2,12.9,55.8,11.4,57.3z M1.9,42.3l-50.8,28.1
			c-1.9,1.1-4.4,0.4-5.4-1.6s-0.4-4.4,1.6-5.4L-2,35.3c1.9-1.1,4.4-0.4,5.4,1.6C4.5,38.8,3.8,41.2,1.9,42.3z M35.2,37.4
			c-7.7,4.2-17.3,1.5-21.6-6.2c-4.2-7.7-1.5-17.3,6.2-21.6s17.3-1.5,21.6,6.2C45.6,23.5,42.8,33.2,35.2,37.4z M126.1,8.9
			c0.4,1.8-0.4,3.6-2,4.4c-0.3,0.2-0.6,0.3-1,0.4L64.6,27.8c-2.1,0.5-4.3-0.8-4.8-3c-0.5-2.1,0.8-4.3,3-4.8L121.3,6
			C123.4,5.5,125.6,6.8,126.1,8.9z M107.7-16.3L57,11.8c-1.9,1.1-4.4,0.4-5.4-1.6c-1.1-1.9-0.4-4.4,1.6-5.4l50.8-28.1
			c1.9-1.1,4.4-0.4,5.4,1.6S109.7-17.3,107.7-16.3z"/>
		<circle id="XMLID_144_" fill="#231F20" cx="208.5" cy="448.4" r="11.8"/>
		<circle id="XMLID_146_" fill="#231F20" cx="710.3" cy="268.7" r="11.8"/>
		<circle id="XMLID_147_" fill="#231F20" cx="801.5" cy="637.7" r="11.8"/>
		<circle id="XMLID_148_" fill="#231F20" cx="1132.8" cy="490" r="11.8"/>
		<circle id="XMLID_149_" fill="#231F20" cx="1146.4" cy="870.5" r="11.8"/>
		<circle id="XMLID_150_" fill="#231F20" cx="350.1" cy="882.3" r="11.8"/>
		<circle id="XMLID_151_" fill="#231F20" cx="399.4" cy="57" r="11.8"/>
		<circle id="XMLID_156_" fill="#FFFFFF" cx="399.4" cy="193.9" r="6.5"/>
		<circle id="XMLID_179_" fill="#FFFFFF" cx="102.4" cy="416.3" r="6.5"/>
		<circle id="XMLID_180_" fill="#FFFFFF" cx="1084.9" cy="897.2" r="6.5"/>
		<circle id="XMLID_181_" fill="#FFFFFF" cx="1170.1" cy="450.3" r="6.5"/>
		<circle id="XMLID_157_" fill="#FFFFFF" cx="140.1" cy="134.2" r="6.5"/>
		<circle id="XMLID_158_" fill="#FFFFFF" cx="80.4" cy="175.5" r="6.5"/>
		<circle id="XMLID_159_" fill="#FFFFFF" cx="248" cy="560.4" r="6.5"/>
		<circle id="XMLID_160_" fill="#FFFFFF" cx="266.6" cy="715" r="6.5"/>
		<circle id="XMLID_161_" fill="#FFFFFF" cx="331.7" cy="756.9" r="6.5"/>
		<circle id="XMLID_162_" fill="#FFFFFF" cx="588.5" cy="806" r="6.5"/>
		<circle id="XMLID_163_" fill="#FFFFFF" cx="648.5" cy="897.2" r="6.5"/>
		<circle id="XMLID_164_" fill="#FFFFFF" cx="946" cy="684.1" r="6.5"/>
		<circle id="XMLID_168_" fill="#FFFFFF" cx="824.2" cy="380.7" r="6.5"/>
		<circle id="XMLID_169_" fill="#FFFFFF" cx="968.4" cy="422.8" r="6.5"/>
		<circle id="XMLID_170_" fill="#FFFFFF" cx="1189" cy="315.7" r="6.5"/>
		<circle id="XMLID_171_" fill="#FFFFFF" cx="1256.6" cy="288.1" r="6.5"/>
		<circle id="XMLID_172_" fill="#FFFFFF" cx="1256.6" cy="599.6" r="6.5"/>
		<circle id="XMLID_173_" fill="#FFFFFF" cx="610.8" cy="193.9" r="6.5"/>
		<circle id="XMLID_174_" fill="#FFFFFF" cx="779.3" cy="169" r="6.5"/>
		<circle id="XMLID_176_" fill="#FFFFFF" cx="655" cy="510.2" r="6.5"/>
		<circle id="XMLID_178_" fill="#FFFFFF" cx="668" cy="362" r="6.5"/>
		<circle id="XMLID_177_" fill="#FFFFFF" cx="734.4" cy="546.9" r="6.5"/>
		<circle id="XMLID_175_" fill="#FFFFFF" cx="809.4" cy="63.6" r="6.5"/>
		<circle id="XMLID_165_" fill="#FFFFFF" cx="952.5" cy="750.4" r="6.5"/>
		<circle id="XMLID_166_" fill="#FFFFFF" cx="1114.4" cy="636.3" r="6.5"/>
		<circle id="XMLID_167_" fill="#FFFFFF" cx="1232.8" cy="843.7" r="6.5"/>
		<circle id="XMLID_152_" fill="#231F20" cx="1158.2" cy="75.5" r="11.8"/>
		<circle id="XMLID_153_" fill="#231F20" cx="1369.2" cy="843.7" r="11.8"/>
		<circle id="XMLID_154_" fill="#231F20" cx="338.3" cy="642.8" r="11.8"/>
		<circle id="XMLID_155_" fill="#231F20" cx="43.9" cy="738.5" r="11.8"/>
	</g>
</g>
</svg>
