<?xml version="1.0" encoding="iso-8859-1"?>
<!-- Generator: Adobe Illustrator 19.0.0, SVG Export Plug-In . SVG Version: 6.00 Build 0)  -->
<svg version="1.1" id="Layer_1" xmlns="http://www.w3.org/2000/svg" xmlns:xlink="http://www.w3.org/1999/xlink" x="0px" y="0px"
	 viewBox="0 0 512 512" style="enable-background:new 0 0 512 512;" xml:space="preserve">
<path style="fill:#57565C;" d="M85.516,355.027c-4.318,0-7.819-3.501-7.819-7.819V201.031c0-4.318,3.501-7.819,7.819-7.819
	c4.318,0,7.819,3.501,7.819,7.819v146.177C93.335,351.526,89.834,355.027,85.516,355.027z"/>
<path style="fill:#3E3D42;" d="M93.335,201.031c0-4.318-3.501-7.819-7.819-7.819c-4.318,0-7.819,3.501-7.819,7.819v43.974
	c2.239,0.309,4.518,0.468,6.827,0.468c0.002,0,0.003,0,0.004,0c2.949,0,5.9-0.28,8.806-0.813
	C93.335,244.66,93.335,201.031,93.335,201.031z"/>
<path style="fill:#957856;" d="M141.997,373.618c9.664,15.326,47.16,102.326,31.834,111.99s-77.67-61.667-87.335-76.993
	c-9.664-15.326-5.075-35.585,10.252-45.249C112.074,353.702,132.333,358.292,141.997,373.618z"/>
<path style="fill:#6A563D;" d="M130.739,362.763l-5.74,45.412l-43.453-14.393c0.412,5.109,2.022,10.199,4.947,14.835
	c3.837,6.086,15.987,21.005,30.196,36.177l18.124,6.004c5.304,1.757,11.117,1.048,15.843-1.933c4.727-2.981,7.872-7.92,8.572-13.464
	l2.395-18.94c-7.565-19.361-15.792-36.754-19.63-42.841C139.069,368.983,135.172,365.336,130.739,362.763z"/>
<path style="fill:#554431;" d="M170.294,487.808c-2.596,0-5.134-1.292-6.622-3.649l-83.728-132.78
	c-2.303-3.653-1.209-8.481,2.444-10.785c3.654-2.304,8.481-1.209,10.785,2.444l83.728,132.779c2.303,3.653,1.209,8.481-2.444,10.785
	C173.162,487.418,171.719,487.808,170.294,487.808z"/>
<path style="fill:#A78966;" d="M118.322,399.117c0,18.119-14.688,111.709-32.807,111.709s-32.807-93.591-32.807-111.709
	c0-18.119,14.688-32.807,32.807-32.807S118.322,380.999,118.322,399.117z"/>
<path style="fill:#806749;" d="M114.59,383.931l-29.077,35.351l-29.079-35.351c-2.377,4.542-3.729,9.706-3.729,15.187
	c0,7.195,2.319,26.295,6.247,46.707L71.08,460.57c3.55,4.315,8.845,6.816,14.432,6.816s10.883-2.501,14.432-6.816l12.127-14.744
	c3.928-20.412,6.247-39.513,6.247-46.708C118.319,393.635,116.967,388.472,114.59,383.931z"/>
<path style="fill:#5F4D37;" d="M85.516,512c-4.318,0-7.819-3.5-7.819-7.819V347.208c0-4.318,3.501-7.819,7.819-7.819
	c4.318,0,7.819,3.501,7.819,7.819v156.974C93.335,508.5,89.834,512,85.516,512z"/>
<path style="fill:#FF728B;" d="M81.757,197.714c-3.218-6.437-0.61-14.265,5.827-17.484L430.038,8.986
	c6.44-3.218,14.265-0.61,17.484,5.828c3.218,6.436,0.61,14.265-5.827,17.484L99.241,203.54
	C88.008,208.24,84.041,202.28,81.757,197.714z"/>
<path style="fill:#FF3F62;" d="M139.909,154.065L87.584,180.23c-6.436,3.219-9.046,11.046-5.827,17.484
	c2.283,4.566,6.25,10.526,17.484,5.827l52.115-26.059L139.909,154.065z"/>
<path style="fill:#2D2D30;" d="M409.68,13.77l23.771-11.887c8.807-4.404,19.554-0.821,23.958,7.985
	c4.404,8.807,0.822,19.554-7.986,23.958l-23.77,11.888c-1.846,0.924-4.091,0.175-5.014-1.671l-12.63-25.258
	C407.086,16.938,407.834,14.694,409.68,13.77z"/>
<path style="fill:#1D1D1F;" d="M438.536,19.146c4.404,8.806,0.822,19.554-7.985,23.958l18.873-9.278
	c8.807-4.404,12.389-15.152,7.986-23.958S442.259-2.52,433.453,1.884l-16.886,8.444C424.943,7.331,434.459,10.992,438.536,19.146z"
	/>
<path style="fill:#2D2D30;" d="M100.283,168.484L76.512,180.37c-8.806,4.404-12.389,15.152-7.986,23.958
	c4.404,8.806,15.152,12.389,23.958,7.986l23.771-11.887c1.846-0.923,2.595-3.168,1.671-5.014l-12.63-25.257
	C104.375,168.31,102.129,167.561,100.283,168.484z"/>
<path style="fill:#1D1D1F;" d="M87.4,195.051c-4.404-8.806-0.821-19.554,7.985-23.958l-18.873,9.278
	c-8.806,4.404-12.389,15.152-7.986,23.958c4.404,8.806,15.152,12.389,23.958,7.986l16.886-8.444
	C100.993,206.867,91.478,203.205,87.4,195.051z"/>
<g>
</g>
<g>
</g>
<g>
</g>
<g>
</g>
<g>
</g>
<g>
</g>
<g>
</g>
<g>
</g>
<g>
</g>
<g>
</g>
<g>
</g>
<g>
</g>
<g>
</g>
<g>
</g>
<g>
</g>
</svg>
